<?xml version="1.0" encoding="UTF-8"?>
<svg id="Layer_1" data-name="Layer 1" xmlns="http://www.w3.org/2000/svg" xmlns:xlink="http://www.w3.org/1999/xlink" viewBox="0 0 934.51 634.67">
  <defs>
    <style>
      .cls-1 {
        fill: none;
        stroke: url(#linear-gradient-3);
      }

      .cls-1, .cls-2, .cls-3, .cls-4 {
        stroke-miterlimit: 10;
        stroke-width: 5px;
      }

      .cls-5 {
        fill: #2ebbff;
        font-size: 92.07px;
      }

      .cls-5, .cls-6, .cls-7 {
        font-family: Futura-Bold, Futura-Bold;
        font-weight: 700;
      }

      .cls-2 {
        fill: url(#linear-gradient-5);
      }

      .cls-2, .cls-4 {
        stroke: #fff;
      }

      .cls-3 {
        stroke: url(#linear-gradient-2);
      }

      .cls-3, .cls-6, .cls-7 {
        fill: #fff;
      }

      .cls-4 {
        fill: url(#linear-gradient-4);
      }

      .cls-6 {
        font-size: 21.06px;
      }

      .cls-8 {
        fill: url(#linear-gradient);
      }

      .cls-7 {
        font-size: 23.33px;
      }
    </style>
    <linearGradient id="linear-gradient" x1="84.2" y1="270.99" x2="428.63" y2="270.99" gradientUnits="userSpaceOnUse">
      <stop offset="0" stop-color="#3fb1ff"/>
      <stop offset="1" stop-color="#3ff1ff"/>
    </linearGradient>
    <linearGradient id="linear-gradient-2" x1="118.7" y1="270.99" x2="394.13" y2="270.99" gradientUnits="userSpaceOnUse">
      <stop offset="0" stop-color="#2ab4ff"/>
      <stop offset="1" stop-color="#1593ff"/>
    </linearGradient>
    <linearGradient id="linear-gradient-3" x1="512.83" x2="0" y2="270.99" xlink:href="#linear-gradient"/>
    <linearGradient id="linear-gradient-4" x1="142.76" y1="102.46" x2="27.32" y2="35.81" xlink:href="#linear-gradient"/>
    <linearGradient id="linear-gradient-5" x1="489.17" y1="506.17" x2="373.73" y2="439.52" xlink:href="#linear-gradient"/>
  </defs>
  <g>
    <path class="cls-8" d="m428.63,270.99c-28.44-20.01-32.46-39.08-13.53-67.58-33.48-6.18-44.01-21.8-36.91-55.19-33.12,7.16-48.61-3.46-54.74-37.21-28.27,19.08-47.18,15.03-67.03-13.64-19.85,28.67-38.76,32.73-67.03,13.64-6.13,33.75-21.62,44.37-54.74,37.21,7.1,33.39-3.43,49.01-36.91,55.19,18.93,28.5,14.91,47.57-13.53,67.58,28.44,20.01,32.46,39.08,13.53,67.58,33.48,6.18,44.01,21.8,36.91,55.19,33.12-7.16,48.61,3.46,54.74,37.21,28.27-19.08,47.18-15.03,67.03,13.64,19.85-28.67,38.76-32.73,67.03-13.64,6.13-33.75,21.62-44.37,54.74-37.21-7.1-33.39,3.43-49.01,36.91-55.19-18.93-28.5-14.91-47.57,13.53-67.58Z"/>
    <circle class="cls-3" cx="256.41" cy="270.99" r="135.21"/>
  </g>
  <text class="cls-5" transform="translate(145.79 299.21)"><tspan x="0" y="0">Brite</tspan></text>
  <circle class="cls-1" cx="256.41" cy="270.99" r="253.91"/>
  <circle class="cls-4" cx="85.04" cy="69.14" r="66.64"/>
  <circle class="cls-2" cx="431.45" cy="472.84" r="66.64"/>
  <text class="cls-6" transform="translate(31.42 75.14)"><tspan x="0" y="0">Educators</tspan></text>
  <text class="cls-7" transform="translate(377.81 482.82)"><tspan x="0" y="0">Students</tspan></text>
</svg>