<svg width="851" height="329" viewBox="0 0 851 329" fill="none" xmlns="http://www.w3.org/2000/svg">
<g filter="url(#filter0_d_98_896)">
<rect x="38.6571" y="34.6571" width="251.486" height="251.486" fill="white" stroke="#D9D9D9" stroke-width="9.31429"/>
<path d="M65.7313 256.987H58.7707L74.4108 213.526H81.9868L97.627 256.987H90.6664L78.3792 221.42H78.0396L65.7313 256.987ZM66.8984 239.968H89.478V245.485H66.8984V239.968ZM103.394 269.211V224.391H109.59V229.675H110.121C110.489 228.996 111.019 228.211 111.713 227.32C112.406 226.429 113.368 225.65 114.599 224.985C115.83 224.306 117.457 223.967 119.48 223.967C122.111 223.967 124.46 224.632 126.525 225.962C128.591 227.292 130.211 229.209 131.385 231.713C132.573 234.217 133.167 237.23 133.167 240.753C133.167 244.276 132.58 247.296 131.406 249.814C130.232 252.319 128.619 254.25 126.568 255.608C124.516 256.952 122.175 257.624 119.543 257.624C117.563 257.624 115.943 257.291 114.684 256.627C113.439 255.962 112.462 255.183 111.755 254.292C111.048 253.401 110.503 252.609 110.121 251.915H109.739V269.211H103.394ZM109.612 240.689C109.612 242.981 109.944 244.99 110.609 246.716C111.274 248.442 112.236 249.793 113.495 250.769C114.754 251.731 116.296 252.212 118.121 252.212C120.017 252.212 121.602 251.71 122.875 250.706C124.148 249.687 125.11 248.308 125.761 246.568C126.426 244.827 126.759 242.868 126.759 240.689C126.759 238.539 126.433 236.608 125.782 234.896C125.146 233.184 124.184 231.833 122.896 230.843C121.623 229.852 120.031 229.357 118.121 229.357C116.282 229.357 114.726 229.831 113.453 230.779C112.194 231.727 111.239 233.05 110.588 234.747C109.937 236.445 109.612 238.426 109.612 240.689ZM140.277 256.987V224.391H146.41V229.569H146.749C147.343 227.815 148.39 226.436 149.89 225.431C151.404 224.413 153.116 223.903 155.025 223.903C155.422 223.903 155.888 223.917 156.426 223.946C156.978 223.974 157.409 224.009 157.721 224.052V230.121C157.466 230.05 157.013 229.973 156.362 229.888C155.712 229.789 155.061 229.739 154.41 229.739C152.91 229.739 151.573 230.057 150.399 230.694C149.239 231.317 148.319 232.187 147.64 233.304C146.961 234.408 146.622 235.667 146.622 237.082V256.987H140.277ZM163.212 256.987V224.391H169.557V256.987H163.212ZM166.416 219.362C165.312 219.362 164.365 218.994 163.572 218.258C162.794 217.509 162.405 216.617 162.405 215.584C162.405 214.538 162.794 213.646 163.572 212.911C164.365 212.161 165.312 211.786 166.416 211.786C167.52 211.786 168.46 212.161 169.238 212.911C170.031 213.646 170.427 214.538 170.427 215.584C170.427 216.617 170.031 217.509 169.238 218.258C168.46 218.994 167.52 219.362 166.416 219.362ZM184.438 213.526V256.987H178.093V213.526H184.438ZM225.194 213.526V256.987H218.615V220.105H218.361L207.962 226.895V220.614L218.806 213.526H225.194ZM251.402 212.932C253.34 212.946 255.25 213.3 257.132 213.993C259.014 214.686 260.711 215.818 262.225 217.388C263.753 218.959 264.97 221.081 265.875 223.755C266.795 226.414 267.262 229.725 267.276 233.686C267.276 237.492 266.894 240.88 266.13 243.851C265.366 246.808 264.269 249.305 262.841 251.342C261.426 253.38 259.707 254.929 257.684 255.99C255.661 257.051 253.383 257.582 250.85 257.582C248.261 257.582 245.962 257.072 243.954 256.054C241.945 255.035 240.311 253.627 239.051 251.831C237.792 250.02 237.007 247.94 236.696 245.591H243.168C243.593 247.459 244.456 248.973 245.757 250.133C247.073 251.279 248.771 251.852 250.85 251.852C254.034 251.852 256.517 250.465 258.299 247.692C260.082 244.905 260.98 241.015 260.994 236.021H260.655C259.919 237.237 258.999 238.284 257.896 239.161C256.807 240.039 255.583 240.718 254.225 241.199C252.866 241.68 251.416 241.92 249.874 241.92C247.37 241.92 245.092 241.305 243.041 240.074C240.99 238.843 239.356 237.152 238.139 235.002C236.922 232.852 236.314 230.397 236.314 227.638C236.314 224.894 236.936 222.404 238.181 220.168C239.44 217.933 241.195 216.164 243.444 214.863C245.708 213.547 248.36 212.903 251.402 212.932ZM251.423 218.449C249.768 218.449 248.276 218.86 246.946 219.68C245.63 220.487 244.59 221.583 243.826 222.969C243.062 224.342 242.68 225.87 242.68 227.553C242.68 229.237 243.048 230.765 243.784 232.137C244.534 233.495 245.552 234.578 246.84 235.384C248.141 236.176 249.627 236.572 251.296 236.572C252.541 236.572 253.701 236.332 254.776 235.851C255.852 235.37 256.792 234.705 257.599 233.856C258.405 232.993 259.035 232.017 259.488 230.927C259.94 229.838 260.167 228.692 260.167 227.49C260.167 225.891 259.785 224.405 259.021 223.033C258.271 221.661 257.238 220.557 255.922 219.723C254.607 218.874 253.107 218.449 251.423 218.449Z" fill="black"/>
<path d="M94.6723 175.556C89.6099 175.556 85.1361 174.685 81.251 172.943C77.3894 171.2 74.3637 168.799 72.1739 165.738C69.9841 162.677 68.901 159.192 68.9245 155.283C68.901 152.222 69.525 149.408 70.7965 146.842C72.0915 144.252 73.8457 142.097 76.059 140.378C78.2724 138.636 80.7447 137.529 83.4761 137.058V136.634C79.8735 135.763 76.9891 133.832 74.8229 130.842C72.6566 127.852 71.5853 124.414 71.6088 120.529C71.5853 116.832 72.5624 113.536 74.5403 110.639C76.5417 107.72 79.2849 105.424 82.7697 103.752C86.2546 102.08 90.2221 101.244 94.6723 101.244C99.0755 101.244 103.008 102.092 106.469 103.787C109.954 105.459 112.697 107.755 114.698 110.675C116.7 113.571 117.712 116.856 117.736 120.529C117.712 124.414 116.606 127.852 114.416 130.842C112.226 133.832 109.377 135.763 105.869 136.634V137.058C108.576 137.529 111.013 138.636 113.18 140.378C115.369 142.097 117.112 144.252 118.407 146.842C119.726 149.408 120.397 152.222 120.42 155.283C120.397 159.192 119.29 162.677 117.1 165.738C114.91 168.799 111.873 171.2 107.988 172.943C104.126 174.685 99.6877 175.556 94.6723 175.556ZM94.6723 166.621C97.6627 166.621 100.253 166.126 102.443 165.137C104.632 164.125 106.328 162.724 107.529 160.934C108.729 159.121 109.342 157.002 109.365 154.577C109.342 152.057 108.682 149.832 107.387 147.901C106.116 145.97 104.385 144.452 102.195 143.345C100.006 142.238 97.4979 141.685 94.6723 141.685C91.8232 141.685 89.292 142.238 87.0787 143.345C84.8653 144.452 83.1229 145.97 81.8514 147.901C80.5799 149.832 79.9559 152.057 79.9795 154.577C79.9559 157.002 80.5328 159.121 81.7101 160.934C82.911 162.724 84.6181 164.125 86.8314 165.137C89.0448 166.126 91.6584 166.621 94.6723 166.621ZM94.6723 132.961C97.0741 132.961 99.205 132.478 101.065 131.513C102.925 130.548 104.385 129.206 105.445 127.487C106.528 125.768 107.081 123.755 107.105 121.447C107.081 119.187 106.54 117.209 105.48 115.513C104.444 113.818 102.996 112.511 101.136 111.593C99.2756 110.651 97.1211 110.18 94.6723 110.18C92.1764 110.18 89.9866 110.651 88.1029 111.593C86.2428 112.511 84.7947 113.818 83.7587 115.513C82.7226 117.209 82.2164 119.187 82.2399 121.447C82.2164 123.755 82.7344 125.768 83.794 127.487C84.8536 129.206 86.3134 130.548 88.1736 131.513C90.0573 132.478 92.2235 132.961 94.6723 132.961ZM135.51 174.567L167.086 112.123V111.593H130.566V102.233H178.388V111.911L146.918 174.567H135.51ZM228.427 161.005V157.19C228.427 154.459 228.992 151.963 230.122 149.703C231.276 147.419 232.948 145.594 235.137 144.228C237.351 142.839 240.023 142.144 243.155 142.144C246.357 142.144 249.041 142.827 251.208 144.193C253.374 145.558 255.01 147.383 256.117 149.667C257.247 151.951 257.812 154.459 257.812 157.19V161.005C257.812 163.736 257.247 166.244 256.117 168.528C254.987 170.788 253.327 172.613 251.137 174.002C248.971 175.368 246.31 176.051 243.155 176.051C239.976 176.051 237.292 175.368 235.102 174.002C232.912 172.613 231.252 170.788 230.122 168.528C228.992 166.244 228.427 163.736 228.427 161.005ZM236.656 157.19V161.005C236.656 163.03 237.139 164.866 238.104 166.515C239.07 168.163 240.753 168.987 243.155 168.987C245.533 168.987 247.193 168.163 248.135 166.515C249.077 164.866 249.548 163.03 249.548 161.005V157.19C249.548 155.165 249.089 153.329 248.17 151.68C247.275 150.032 245.604 149.208 243.155 149.208C240.8 149.208 239.128 150.032 238.14 151.68C237.151 153.329 236.656 155.165 236.656 157.19ZM192.048 119.61V115.796C192.048 113.065 192.613 110.557 193.743 108.273C194.897 105.989 196.569 104.164 198.758 102.798C200.972 101.433 203.644 100.75 206.776 100.75C209.978 100.75 212.662 101.433 214.829 102.798C216.995 104.164 218.631 105.989 219.738 108.273C220.845 110.557 221.398 113.065 221.398 115.796V119.61C221.398 122.342 220.833 124.85 219.703 127.134C218.596 129.394 216.948 131.219 214.758 132.608C212.592 133.974 209.931 134.657 206.776 134.657C203.574 134.657 200.878 133.974 198.688 132.608C196.522 131.219 194.873 129.394 193.743 127.134C192.613 124.85 192.048 122.342 192.048 119.61ZM200.312 115.796V119.61C200.312 121.635 200.783 123.472 201.725 125.12C202.691 126.769 204.374 127.593 206.776 127.593C209.131 127.593 210.779 126.769 211.721 125.12C212.686 123.472 213.169 121.635 213.169 119.61V115.796C213.169 113.771 212.71 111.934 211.791 110.286C210.873 108.638 209.201 107.814 206.776 107.814C204.421 107.814 202.75 108.638 201.761 110.286C200.795 111.934 200.312 113.771 200.312 115.796ZM195.403 174.567L245.133 102.233H253.574L203.844 174.567H195.403Z" fill="#41B84D"/>
<path d="M94.6723 175.556C89.6099 175.556 85.1361 174.685 81.251 172.943C77.3894 171.2 74.3637 168.799 72.1739 165.738C69.9841 162.677 68.901 159.192 68.9245 155.283C68.901 152.222 69.525 149.408 70.7965 146.842C72.0915 144.252 73.8457 142.097 76.059 140.378C78.2724 138.636 80.7447 137.529 83.4761 137.058V136.634C79.8735 135.763 76.9891 133.832 74.8229 130.842C72.6566 127.852 71.5853 124.414 71.6088 120.529C71.5853 116.832 72.5624 113.536 74.5403 110.639C76.5417 107.72 79.2849 105.424 82.7697 103.752C86.2546 102.08 90.2221 101.244 94.6723 101.244C99.0755 101.244 103.008 102.092 106.469 103.787C109.954 105.459 112.697 107.755 114.698 110.675C116.7 113.571 117.712 116.856 117.736 120.529C117.712 124.414 116.606 127.852 114.416 130.842C112.226 133.832 109.377 135.763 105.869 136.634V137.058C108.576 137.529 111.013 138.636 113.18 140.378C115.369 142.097 117.112 144.252 118.407 146.842C119.726 149.408 120.397 152.222 120.42 155.283C120.397 159.192 119.29 162.677 117.1 165.738C114.91 168.799 111.873 171.2 107.988 172.943C104.126 174.685 99.6877 175.556 94.6723 175.556ZM94.6723 166.621C97.6627 166.621 100.253 166.126 102.443 165.137C104.632 164.125 106.328 162.724 107.529 160.934C108.729 159.121 109.342 157.002 109.365 154.577C109.342 152.057 108.682 149.832 107.387 147.901C106.116 145.97 104.385 144.452 102.195 143.345C100.006 142.238 97.4979 141.685 94.6723 141.685C91.8232 141.685 89.292 142.238 87.0787 143.345C84.8653 144.452 83.1229 145.97 81.8514 147.901C80.5799 149.832 79.9559 152.057 79.9795 154.577C79.9559 157.002 80.5328 159.121 81.7101 160.934C82.911 162.724 84.6181 164.125 86.8314 165.137C89.0448 166.126 91.6584 166.621 94.6723 166.621ZM94.6723 132.961C97.0741 132.961 99.205 132.478 101.065 131.513C102.925 130.548 104.385 129.206 105.445 127.487C106.528 125.768 107.081 123.755 107.105 121.447C107.081 119.187 106.54 117.209 105.48 115.513C104.444 113.818 102.996 112.511 101.136 111.593C99.2756 110.651 97.1211 110.18 94.6723 110.18C92.1764 110.18 89.9866 110.651 88.1029 111.593C86.2428 112.511 84.7947 113.818 83.7587 115.513C82.7226 117.209 82.2164 119.187 82.2399 121.447C82.2164 123.755 82.7344 125.768 83.794 127.487C84.8536 129.206 86.3134 130.548 88.1736 131.513C90.0573 132.478 92.2235 132.961 94.6723 132.961ZM135.51 174.567L167.086 112.123V111.593H130.566V102.233H178.388V111.911L146.918 174.567H135.51ZM228.427 161.005V157.19C228.427 154.459 228.992 151.963 230.122 149.703C231.276 147.419 232.948 145.594 235.137 144.228C237.351 142.839 240.023 142.144 243.155 142.144C246.357 142.144 249.041 142.827 251.208 144.193C253.374 145.558 255.01 147.383 256.117 149.667C257.247 151.951 257.812 154.459 257.812 157.19V161.005C257.812 163.736 257.247 166.244 256.117 168.528C254.987 170.788 253.327 172.613 251.137 174.002C248.971 175.368 246.31 176.051 243.155 176.051C239.976 176.051 237.292 175.368 235.102 174.002C232.912 172.613 231.252 170.788 230.122 168.528C228.992 166.244 228.427 163.736 228.427 161.005ZM236.656 157.19V161.005C236.656 163.03 237.139 164.866 238.104 166.515C239.07 168.163 240.753 168.987 243.155 168.987C245.533 168.987 247.193 168.163 248.135 166.515C249.077 164.866 249.548 163.03 249.548 161.005V157.19C249.548 155.165 249.089 153.329 248.17 151.68C247.275 150.032 245.604 149.208 243.155 149.208C240.8 149.208 239.128 150.032 238.14 151.68C237.151 153.329 236.656 155.165 236.656 157.19ZM192.048 119.61V115.796C192.048 113.065 192.613 110.557 193.743 108.273C194.897 105.989 196.569 104.164 198.758 102.798C200.972 101.433 203.644 100.75 206.776 100.75C209.978 100.75 212.662 101.433 214.829 102.798C216.995 104.164 218.631 105.989 219.738 108.273C220.845 110.557 221.398 113.065 221.398 115.796V119.61C221.398 122.342 220.833 124.85 219.703 127.134C218.596 129.394 216.948 131.219 214.758 132.608C212.592 133.974 209.931 134.657 206.776 134.657C203.574 134.657 200.878 133.974 198.688 132.608C196.522 131.219 194.873 129.394 193.743 127.134C192.613 124.85 192.048 122.342 192.048 119.61ZM200.312 115.796V119.61C200.312 121.635 200.783 123.472 201.725 125.12C202.691 126.769 204.374 127.593 206.776 127.593C209.131 127.593 210.779 126.769 211.721 125.12C212.686 123.472 213.169 121.635 213.169 119.61V115.796C213.169 113.771 212.71 111.934 211.791 110.286C210.873 108.638 209.201 107.814 206.776 107.814C204.421 107.814 202.75 108.638 201.761 110.286C200.795 111.934 200.312 113.771 200.312 115.796ZM195.403 174.567L245.133 102.233H253.574L203.844 174.567H195.403Z" fill="#41B84D"/>
<rect x="299.457" y="34.6571" width="251.486" height="251.486" fill="white" stroke="#D9D9D9" stroke-width="9.31429"/>
<path d="M322.54 256.987H315.579L331.219 213.526H338.795L354.436 256.987H347.475L335.188 221.42H334.848L322.54 256.987ZM323.707 239.968H346.287V245.485H323.707V239.968ZM360.202 269.211V224.391H366.399V229.675H366.93C367.297 228.996 367.828 228.211 368.521 227.32C369.214 226.429 370.176 225.65 371.407 224.985C372.638 224.306 374.265 223.967 376.288 223.967C378.92 223.967 381.268 224.632 383.334 225.962C385.399 227.292 387.019 229.209 388.193 231.713C389.382 234.217 389.976 237.23 389.976 240.753C389.976 244.276 389.389 247.296 388.215 249.814C387.04 252.319 385.428 254.25 383.376 255.608C381.325 256.952 378.983 257.624 376.352 257.624C374.371 257.624 372.751 257.291 371.492 256.627C370.247 255.962 369.271 255.183 368.564 254.292C367.856 253.401 367.312 252.609 366.93 251.915H366.548V269.211H360.202ZM366.42 240.689C366.42 242.981 366.753 244.99 367.418 246.716C368.083 248.442 369.045 249.793 370.304 250.769C371.563 251.731 373.105 252.212 374.93 252.212C376.826 252.212 378.41 251.71 379.684 250.706C380.957 249.687 381.919 248.308 382.57 246.568C383.235 244.827 383.567 242.868 383.567 240.689C383.567 238.539 383.242 236.608 382.591 234.896C381.954 233.184 380.992 231.833 379.705 230.843C378.432 229.852 376.84 229.357 374.93 229.357C373.091 229.357 371.535 229.831 370.261 230.779C369.002 231.727 368.047 233.05 367.396 234.747C366.746 236.445 366.42 238.426 366.42 240.689ZM397.085 256.987V224.391H403.218V229.569H403.558C404.152 227.815 405.199 226.436 406.698 225.431C408.212 224.413 409.924 223.903 411.834 223.903C412.23 223.903 412.697 223.917 413.235 223.946C413.786 223.974 414.218 224.009 414.529 224.052V230.121C414.274 230.05 413.822 229.973 413.171 229.888C412.52 229.789 411.869 229.739 411.219 229.739C409.719 229.739 408.382 230.057 407.208 230.694C406.048 231.317 405.128 232.187 404.449 233.304C403.77 234.408 403.43 235.667 403.43 237.082V256.987H397.085ZM420.02 256.987V224.391H426.365V256.987H420.02ZM423.225 219.362C422.121 219.362 421.173 218.994 420.381 218.258C419.603 217.509 419.214 216.617 419.214 215.584C419.214 214.538 419.603 213.646 420.381 212.911C421.173 212.161 422.121 211.786 423.225 211.786C424.328 211.786 425.269 212.161 426.047 212.911C426.839 213.646 427.235 214.538 427.235 215.584C427.235 216.617 426.839 217.509 426.047 218.258C425.269 218.994 424.328 219.362 423.225 219.362ZM441.247 213.526V256.987H434.902V213.526H441.247ZM465.513 256.987V252.234L480.22 236.997C481.79 235.342 483.085 233.891 484.103 232.646C485.136 231.387 485.907 230.192 486.416 229.06C486.926 227.928 487.18 226.726 487.18 225.452C487.18 224.009 486.841 222.764 486.162 221.717C485.483 220.656 484.556 219.843 483.382 219.277C482.208 218.697 480.885 218.407 479.413 218.407C477.857 218.407 476.499 218.725 475.339 219.362C474.179 219.998 473.288 220.897 472.665 222.057C472.043 223.217 471.731 224.575 471.731 226.131H465.471C465.471 223.486 466.079 221.173 467.296 219.192C468.513 217.211 470.182 215.676 472.304 214.587C474.426 213.484 476.839 212.932 479.541 212.932C482.271 212.932 484.676 213.476 486.756 214.566C488.85 215.641 490.484 217.112 491.658 218.98C492.832 220.833 493.42 222.927 493.42 225.261C493.42 226.874 493.115 228.452 492.507 229.994C491.913 231.536 490.873 233.255 489.387 235.151C487.902 237.032 485.836 239.317 483.191 242.005L474.554 251.045V251.364H494.12V256.987H465.513ZM517.294 257.709C513.941 257.695 511.076 256.81 508.699 255.056C506.322 253.302 504.504 250.748 503.245 247.395C501.986 244.042 501.356 240.003 501.356 235.278C501.356 230.567 501.986 226.542 503.245 223.203C504.518 219.864 506.343 217.318 508.72 215.563C511.111 213.809 513.969 212.932 517.294 212.932C520.618 212.932 523.469 213.816 525.846 215.584C528.223 217.339 530.041 219.885 531.3 223.224C532.573 226.549 533.21 230.567 533.21 235.278C533.21 240.017 532.58 244.063 531.321 247.416C530.062 250.755 528.244 253.309 525.867 255.077C523.49 256.832 520.632 257.709 517.294 257.709ZM517.294 252.043C520.236 252.043 522.535 250.607 524.191 247.735C525.86 244.863 526.695 240.711 526.695 235.278C526.695 231.67 526.313 228.621 525.549 226.131C524.799 223.627 523.717 221.732 522.302 220.444C520.901 219.143 519.232 218.492 517.294 218.492C514.365 218.492 512.066 219.935 510.397 222.821C508.727 225.707 507.885 229.859 507.871 235.278C507.871 238.9 508.246 241.963 508.996 244.467C509.76 246.957 510.842 248.845 512.243 250.133C513.643 251.406 515.327 252.043 517.294 252.043Z" fill="black"/>
<path d="M329.512 160.44V151.61L360.77 102.233H367.728V115.231H363.313L340.956 150.621V151.186H383.798V160.44H329.512ZM363.808 174.567V157.755L363.878 153.729V102.233H374.227V174.567H363.808ZM396.107 174.567V166.656L420.583 141.297C423.197 138.542 425.351 136.128 427.047 134.056C428.766 131.96 430.049 129.971 430.897 128.087C431.744 126.203 432.168 124.202 432.168 122.083C432.168 119.681 431.603 117.609 430.473 115.867C429.343 114.101 427.8 112.747 425.846 111.805C423.892 110.84 421.69 110.357 419.241 110.357C416.651 110.357 414.391 110.887 412.46 111.946C410.529 113.006 409.046 114.501 408.01 116.432C406.974 118.363 406.456 120.623 406.456 123.213H396.036C396.036 118.81 397.049 114.96 399.074 111.664C401.099 108.367 403.877 105.812 407.409 103.999C410.941 102.163 414.956 101.244 419.453 101.244C423.998 101.244 428 102.151 431.462 103.964C434.947 105.754 437.666 108.202 439.62 111.31C441.575 114.395 442.552 117.88 442.552 121.765C442.552 124.449 442.046 127.075 441.033 129.641C440.044 132.208 438.314 135.069 435.841 138.224C433.369 141.355 429.931 145.158 425.528 149.632L411.153 164.678V165.208H443.718V174.567H396.107ZM494.86 161.005V157.19C494.86 154.459 495.425 151.963 496.555 149.703C497.709 147.419 499.381 145.594 501.571 144.228C503.784 142.839 506.456 142.144 509.588 142.144C512.79 142.144 515.475 142.827 517.641 144.193C519.807 145.558 521.444 147.383 522.55 149.667C523.681 151.951 524.246 154.459 524.246 157.19V161.005C524.246 163.736 523.681 166.244 522.55 168.528C521.42 170.788 519.76 172.613 517.57 174.002C515.404 175.368 512.743 176.051 509.588 176.051C506.409 176.051 503.725 175.368 501.535 174.002C499.345 172.613 497.685 170.788 496.555 168.528C495.425 166.244 494.86 163.736 494.86 161.005ZM503.089 157.19V161.005C503.089 163.03 503.572 164.866 504.537 166.515C505.503 168.163 507.186 168.987 509.588 168.987C511.966 168.987 513.626 168.163 514.568 166.515C515.51 164.866 515.981 163.03 515.981 161.005V157.19C515.981 155.165 515.522 153.329 514.603 151.68C513.709 150.032 512.037 149.208 509.588 149.208C507.233 149.208 505.562 150.032 504.573 151.68C503.584 153.329 503.089 155.165 503.089 157.19ZM458.481 119.61V115.796C458.481 113.065 459.046 110.557 460.176 108.273C461.33 105.989 463.002 104.164 465.192 102.798C467.405 101.433 470.078 100.75 473.209 100.75C476.411 100.75 479.096 101.433 481.262 102.798C483.428 104.164 485.065 105.989 486.171 108.273C487.278 110.557 487.831 113.065 487.831 115.796V119.61C487.831 122.342 487.266 124.85 486.136 127.134C485.029 129.394 483.381 131.219 481.191 132.608C479.025 133.974 476.364 134.657 473.209 134.657C470.007 134.657 467.311 133.974 465.121 132.608C462.955 131.219 461.307 129.394 460.176 127.134C459.046 124.85 458.481 122.342 458.481 119.61ZM466.746 115.796V119.61C466.746 121.635 467.217 123.472 468.159 125.12C469.124 126.769 470.807 127.593 473.209 127.593C475.564 127.593 477.212 126.769 478.154 125.12C479.119 123.472 479.602 121.635 479.602 119.61V115.796C479.602 113.771 479.143 111.934 478.225 110.286C477.306 108.638 475.634 107.814 473.209 107.814C470.855 107.814 469.183 108.638 468.194 110.286C467.228 111.934 466.746 113.771 466.746 115.796ZM461.836 174.567L511.566 102.233H520.007L470.278 174.567H461.836Z" fill="#FF3D00"/>
<rect x="560.257" y="34.6571" width="251.486" height="251.486" fill="white" stroke="#D9D9D9" stroke-width="9.31429"/>
<path d="M588.662 256.987H581.701L597.341 213.526H604.917L620.558 256.987H613.597L601.31 221.42H600.97L588.662 256.987ZM589.829 239.968H612.409V245.485H589.829V239.968ZM626.325 269.211V224.391H632.521V229.675H633.052C633.42 228.996 633.95 228.211 634.643 227.32C635.337 226.429 636.299 225.65 637.529 224.985C638.76 224.306 640.387 223.967 642.41 223.967C645.042 223.967 647.39 224.632 649.456 225.962C651.521 227.292 653.141 229.209 654.315 231.713C655.504 234.217 656.098 237.23 656.098 240.753C656.098 244.276 655.511 247.296 654.337 249.814C653.162 252.319 651.55 254.25 649.498 255.608C647.447 256.952 645.105 257.624 642.474 257.624C640.493 257.624 638.873 257.291 637.614 256.627C636.369 255.962 635.393 255.183 634.686 254.292C633.978 253.401 633.434 252.609 633.052 251.915H632.67V269.211H626.325ZM632.542 240.689C632.542 242.981 632.875 244.99 633.54 246.716C634.205 248.442 635.167 249.793 636.426 250.769C637.685 251.731 639.227 252.212 641.052 252.212C642.948 252.212 644.532 251.71 645.806 250.706C647.079 249.687 648.041 248.308 648.692 246.568C649.357 244.827 649.689 242.868 649.689 240.689C649.689 238.539 649.364 236.608 648.713 234.896C648.076 233.184 647.114 231.833 645.827 230.843C644.554 229.852 642.962 229.357 641.052 229.357C639.213 229.357 637.657 229.831 636.383 230.779C635.124 231.727 634.169 233.05 633.519 234.747C632.868 236.445 632.542 238.426 632.542 240.689ZM663.207 256.987V224.391H669.34V229.569H669.68C670.274 227.815 671.321 226.436 672.821 225.431C674.334 224.413 676.046 223.903 677.956 223.903C678.352 223.903 678.819 223.917 679.357 223.946C679.908 223.974 680.34 224.009 680.651 224.052V230.121C680.397 230.05 679.944 229.973 679.293 229.888C678.642 229.789 677.991 229.739 677.341 229.739C675.841 229.739 674.504 230.057 673.33 230.694C672.17 231.317 671.25 232.187 670.571 233.304C669.892 234.408 669.552 235.667 669.552 237.082V256.987H663.207ZM686.142 256.987V224.391H692.487V256.987H686.142ZM689.347 219.362C688.243 219.362 687.295 218.994 686.503 218.258C685.725 217.509 685.336 216.617 685.336 215.584C685.336 214.538 685.725 213.646 686.503 212.911C687.295 212.161 688.243 211.786 689.347 211.786C690.45 211.786 691.391 212.161 692.169 212.911C692.961 213.646 693.357 214.538 693.357 215.584C693.357 216.617 692.961 217.509 692.169 218.258C691.391 218.994 690.45 219.362 689.347 219.362ZM707.369 213.526V256.987H701.024V213.526H707.369ZM731.636 256.987V252.234L746.342 236.997C747.912 235.342 749.207 233.891 750.225 232.646C751.258 231.387 752.029 230.192 752.539 229.06C753.048 227.928 753.303 226.726 753.303 225.452C753.303 224.009 752.963 222.764 752.284 221.717C751.605 220.656 750.678 219.843 749.504 219.277C748.33 218.697 747.007 218.407 745.536 218.407C743.979 218.407 742.621 218.725 741.461 219.362C740.301 219.998 739.41 220.897 738.787 222.057C738.165 223.217 737.853 224.575 737.853 226.131H731.593C731.593 223.486 732.201 221.173 733.418 219.192C734.635 217.211 736.304 215.676 738.426 214.587C740.548 213.484 742.961 212.932 745.663 212.932C748.393 212.932 750.798 213.476 752.878 214.566C754.972 215.641 756.606 217.112 757.78 218.98C758.954 220.833 759.542 222.927 759.542 225.261C759.542 226.874 759.237 228.452 758.629 229.994C758.035 231.536 756.995 233.255 755.51 235.151C754.024 237.032 751.959 239.317 749.313 242.005L740.676 251.045V251.364H760.242V256.987H731.636ZM784.774 213.526V256.987H778.195V220.105H777.941L767.542 226.895V220.614L778.386 213.526H784.774Z" fill="black"/>
<path d="M615.707 175.556C611.28 175.556 607.301 174.709 603.769 173.013C600.261 171.294 597.459 168.94 595.363 165.949C593.267 162.959 592.149 159.545 592.008 155.707H602.603C602.862 158.815 604.24 161.37 606.736 163.371C609.232 165.373 612.222 166.373 615.707 166.373C618.485 166.373 620.946 165.738 623.089 164.466C625.255 163.171 626.95 161.393 628.175 159.133C629.423 156.872 630.046 154.294 630.046 151.398C630.046 148.455 629.411 145.829 628.139 143.522C626.868 141.214 625.114 139.401 622.877 138.082C620.663 136.764 618.12 136.093 615.248 136.069C613.058 136.069 610.856 136.446 608.643 137.2C606.43 137.953 604.64 138.942 603.274 140.166L593.279 138.683L597.341 102.233H637.11V111.593H606.418L604.122 131.831H604.546C605.959 130.465 607.831 129.323 610.162 128.405C612.516 127.487 615.036 127.028 617.72 127.028C622.123 127.028 626.044 128.075 629.481 130.171C632.943 132.267 635.662 135.127 637.64 138.754C639.642 142.356 640.631 146.5 640.607 151.186C640.631 155.872 639.571 160.051 637.428 163.724C635.309 167.398 632.366 170.294 628.598 172.413C624.855 174.509 620.557 175.556 615.707 175.556ZM678.69 175.768C673.11 175.745 668.341 174.273 664.386 171.353C660.43 168.434 657.404 164.183 655.309 158.603C653.213 153.023 652.165 146.3 652.165 138.436C652.165 130.595 653.213 123.896 655.309 118.339C657.428 112.782 660.465 108.544 664.421 105.624C668.4 102.704 673.157 101.244 678.69 101.244C684.223 101.244 688.968 102.716 692.924 105.659C696.88 108.579 699.905 112.817 702.001 118.374C704.12 123.908 705.18 130.595 705.18 138.436C705.18 146.324 704.132 153.058 702.036 158.638C699.941 164.195 696.915 168.445 692.959 171.389C689.003 174.308 684.247 175.768 678.69 175.768ZM678.69 166.338C683.588 166.338 687.414 163.948 690.169 159.168C692.947 154.388 694.337 147.477 694.337 138.436C694.337 132.431 693.701 127.357 692.429 123.213C691.181 119.045 689.38 115.89 687.025 113.747C684.694 111.581 681.916 110.498 678.69 110.498C673.816 110.498 669.99 112.9 667.211 117.703C664.433 122.507 663.032 129.417 663.008 138.436C663.008 144.464 663.632 149.561 664.88 153.729C666.152 157.873 667.953 161.017 670.284 163.159C672.615 165.278 675.417 166.338 678.69 166.338ZM755.465 161.005V157.19C755.465 154.459 756.031 151.963 757.161 149.703C758.315 147.419 759.986 145.594 762.176 144.228C764.39 142.839 767.062 142.144 770.194 142.144C773.396 142.144 776.08 142.827 778.246 144.193C780.413 145.558 782.049 147.383 783.156 149.667C784.286 151.951 784.851 154.459 784.851 157.19V161.005C784.851 163.736 784.286 166.244 783.156 168.528C782.026 170.788 780.366 172.613 778.176 174.002C776.01 175.368 773.349 176.051 770.194 176.051C767.015 176.051 764.331 175.368 762.141 174.002C759.951 172.613 758.291 170.788 757.161 168.528C756.031 166.244 755.465 163.736 755.465 161.005ZM763.695 157.19V161.005C763.695 163.03 764.178 164.866 765.143 166.515C766.108 168.163 767.792 168.987 770.194 168.987C772.572 168.987 774.232 168.163 775.174 166.515C776.116 164.866 776.586 163.03 776.586 161.005V157.19C776.586 155.165 776.127 153.329 775.209 151.68C774.314 150.032 772.642 149.208 770.194 149.208C767.839 149.208 766.167 150.032 765.178 151.68C764.189 153.329 763.695 155.165 763.695 157.19ZM719.087 119.61V115.796C719.087 113.065 719.652 110.557 720.782 108.273C721.936 105.989 723.607 104.164 725.797 102.798C728.011 101.433 730.683 100.75 733.815 100.75C737.017 100.75 739.701 101.433 741.868 102.798C744.034 104.164 745.67 105.989 746.777 108.273C747.884 110.557 748.437 113.065 748.437 115.796V119.61C748.437 122.342 747.872 124.85 746.742 127.134C745.635 129.394 743.987 131.219 741.797 132.608C739.631 133.974 736.97 134.657 733.815 134.657C730.612 134.657 727.916 133.974 725.727 132.608C723.56 131.219 721.912 129.394 720.782 127.134C719.652 124.85 719.087 122.342 719.087 119.61ZM727.351 115.796V119.61C727.351 121.635 727.822 123.472 728.764 125.12C729.729 126.769 731.413 127.593 733.815 127.593C736.169 127.593 737.818 126.769 738.759 125.12C739.725 123.472 740.208 121.635 740.208 119.61V115.796C740.208 113.771 739.748 111.934 738.83 110.286C737.912 108.638 736.24 107.814 733.815 107.814C731.46 107.814 729.788 108.638 728.799 110.286C727.834 111.934 727.351 113.771 727.351 115.796ZM722.442 174.567L772.172 102.233H780.613L730.883 174.567H722.442Z" fill="#303B2F"/>
</g>
<defs>
<filter id="filter0_d_98_896" x="0" y="0" width="850.399" height="328.8" filterUnits="userSpaceOnUse" color-interpolation-filters="sRGB">
<feFlood flood-opacity="0" result="BackgroundImageFix"/>
<feColorMatrix in="SourceAlpha" type="matrix" values="0 0 0 0 0 0 0 0 0 0 0 0 0 0 0 0 0 0 127 0" result="hardAlpha"/>
<feOffset dy="4"/>
<feGaussianBlur stdDeviation="17"/>
<feComposite in2="hardAlpha" operator="out"/>
<feColorMatrix type="matrix" values="0 0 0 0 0 0 0 0 0 0 0 0 0 0 0 0 0 0 0.25 0"/>
<feBlend mode="normal" in2="BackgroundImageFix" result="effect1_dropShadow_98_896"/>
<feBlend mode="normal" in="SourceGraphic" in2="effect1_dropShadow_98_896" result="shape"/>
</filter>
</defs>
</svg>
