<svg width="752" height="338" viewBox="0 0 752 338" fill="none" xmlns="http://www.w3.org/2000/svg">
<rect x="46" width="657.224" height="146" rx="32.3181" fill="black"/>
<path d="M45.7041 114.629C37.659 133.935 29.1967 141.21 13.1543 148.5C10.28 150.763 -9.93596 155.483 6.1543 158.5C26.2671 162.271 61.5071 153.091 81.6199 146.304C101.733 139.516 55.7605 90.4951 45.7041 114.629Z" fill="black"/>
<path d="M155.659 35.4794L147.188 62.6353H143.891L137.012 41.9225C136.948 41.7204 136.885 41.5056 136.822 41.2782C136.772 41.0508 136.715 40.8108 136.652 40.5581C136.588 40.8108 136.525 41.0508 136.462 41.2782C136.399 41.5056 136.336 41.7204 136.273 41.9225L129.356 62.6353H126.058L117.587 35.4794H120.638C120.967 35.4794 121.239 35.5615 121.453 35.7257C121.681 35.89 121.826 36.0984 121.889 36.3511L127.499 55.2257C127.587 55.5668 127.669 55.9331 127.745 56.3248C127.833 56.7164 127.915 57.1333 127.991 57.5755C128.08 57.1333 128.168 56.7164 128.257 56.3248C128.358 55.9205 128.465 55.5541 128.579 55.2257L134.965 36.3511C135.041 36.1363 135.186 35.9405 135.401 35.7636C135.628 35.5741 135.9 35.4794 136.216 35.4794H137.277C137.605 35.4794 137.871 35.5615 138.073 35.7257C138.275 35.89 138.427 36.0984 138.528 36.3511L144.895 55.2257C145.009 55.5541 145.11 55.9079 145.198 56.2869C145.299 56.6659 145.394 57.0638 145.482 57.4808C145.546 57.0638 145.615 56.6659 145.691 56.2869C145.767 55.9079 145.849 55.5541 145.937 55.2257L151.565 36.3511C151.629 36.1237 151.768 35.9216 151.982 35.7447C152.21 35.5678 152.481 35.4794 152.797 35.4794H155.659ZM161.506 45.9968C162.327 45.1251 163.237 44.4303 164.235 43.9123C165.233 43.3943 166.382 43.1353 167.684 43.1353C168.732 43.1353 169.654 43.3122 170.45 43.6659C171.259 44.007 171.929 44.4998 172.459 45.1441C173.002 45.7757 173.413 46.5401 173.691 47.4371C173.969 48.334 174.108 49.3258 174.108 50.4123V62.6353H170.716V50.4123C170.716 48.9594 170.381 47.835 169.711 47.0391C169.054 46.2306 168.05 45.8263 166.698 45.8263C165.7 45.8263 164.765 46.0663 163.894 46.5464C163.034 47.0265 162.239 47.6771 161.506 48.4983V62.6353H158.114V34.7214H161.506V45.9968ZM189.045 53.9939C187.491 54.0444 186.165 54.1708 185.066 54.3729C183.979 54.5624 183.088 54.8151 182.394 55.1309C181.711 55.4467 181.212 55.8194 180.896 56.249C180.593 56.6785 180.442 57.1586 180.442 57.6892C180.442 58.1946 180.524 58.6304 180.688 58.9968C180.852 59.3632 181.073 59.6664 181.351 59.9064C181.642 60.1338 181.977 60.3044 182.356 60.4181C182.747 60.5191 183.164 60.5697 183.606 60.5697C184.2 60.5697 184.743 60.5128 185.236 60.3991C185.729 60.2728 186.19 60.0959 186.619 59.8685C187.062 59.6411 187.479 59.3695 187.87 59.0536C188.274 58.7378 188.666 58.3777 189.045 57.9735V53.9939ZM178.149 46.1484C179.21 45.1251 180.353 44.3608 181.579 43.8554C182.804 43.3501 184.162 43.0974 185.653 43.0974C186.727 43.0974 187.681 43.2743 188.515 43.628C189.348 43.9818 190.05 44.4745 190.618 45.1062C191.187 45.7378 191.616 46.5022 191.907 47.3992C192.197 48.2961 192.342 49.2816 192.342 50.3554V62.6353H190.845C190.517 62.6353 190.264 62.5847 190.087 62.4837C189.911 62.3699 189.772 62.1552 189.67 61.8393L189.291 60.0201C188.786 60.4875 188.293 60.9045 187.813 61.2708C187.333 61.6246 186.828 61.9278 186.297 62.1804C185.767 62.4205 185.198 62.6037 184.592 62.73C183.998 62.869 183.335 62.9385 182.602 62.9385C181.857 62.9385 181.155 62.8374 180.499 62.6353C179.842 62.4205 179.267 62.1046 178.774 61.6877C178.294 61.2708 177.909 60.7465 177.618 60.1149C177.34 59.4705 177.201 58.7125 177.201 57.8408C177.201 57.0828 177.41 56.3564 177.827 55.6615C178.243 54.954 178.919 54.3287 179.854 53.7854C180.789 53.2422 182.008 52.8 183.512 52.4589C185.015 52.1052 186.86 51.903 189.045 51.8525V50.3554C189.045 48.8647 188.723 47.7403 188.079 46.9823C187.434 46.2116 186.493 45.8263 185.255 45.8263C184.421 45.8263 183.72 45.9337 183.152 46.1484C182.596 46.3506 182.109 46.5843 181.692 46.8496C181.288 47.1023 180.934 47.336 180.631 47.5508C180.341 47.7529 180.05 47.854 179.759 47.854C179.532 47.854 179.336 47.7971 179.172 47.6834C179.008 47.5571 178.869 47.4055 178.755 47.2286L178.149 46.1484ZM202.509 62.9385C200.993 62.9385 199.824 62.5152 199.003 61.6688C198.194 60.8223 197.79 59.6032 197.79 58.0114V46.2621H195.478C195.276 46.2621 195.105 46.2053 194.967 46.0916C194.828 45.9653 194.758 45.7757 194.758 45.5231V44.1776L197.904 43.7796L198.681 37.8482C198.719 37.6587 198.801 37.5071 198.927 37.3934C199.066 37.267 199.243 37.2039 199.458 37.2039H201.163V43.8175H206.716V46.2621H201.163V57.784C201.163 58.5925 201.359 59.1926 201.751 59.5842C202.142 59.9759 202.648 60.1717 203.267 60.1717C203.621 60.1717 203.924 60.1275 204.176 60.0391C204.442 59.938 204.669 59.8306 204.859 59.7169C205.048 59.6032 205.206 59.5021 205.332 59.4137C205.471 59.3126 205.591 59.2621 205.692 59.2621C205.869 59.2621 206.027 59.3695 206.166 59.5842L207.152 61.195C206.57 61.7383 205.869 62.1678 205.048 62.4837C204.227 62.7869 203.38 62.9385 202.509 62.9385ZM222.246 43.4385V62.6353H218.873V43.4385H222.246ZM222.966 37.4123C222.966 37.7408 222.897 38.0503 222.758 38.3409C222.631 38.6188 222.454 38.8715 222.227 39.0989C222.012 39.3137 221.753 39.4842 221.45 39.6106C221.159 39.7369 220.85 39.8001 220.521 39.8001C220.193 39.8001 219.883 39.7369 219.593 39.6106C219.315 39.4842 219.069 39.3137 218.854 39.0989C218.639 38.8715 218.468 38.6188 218.342 38.3409C218.216 38.0503 218.153 37.7408 218.153 37.4123C218.153 37.0838 218.216 36.7743 218.342 36.4838C218.468 36.1805 218.639 35.9216 218.854 35.7068C219.069 35.4794 219.315 35.3025 219.593 35.1762C219.883 35.0498 220.193 34.9867 220.521 34.9867C220.85 34.9867 221.159 35.0498 221.45 35.1762C221.753 35.3025 222.012 35.4794 222.227 35.7068C222.454 35.9216 222.631 36.1805 222.758 36.4838C222.897 36.7743 222.966 37.0838 222.966 37.4123ZM238.363 46.6032C238.211 46.8812 237.977 47.0202 237.661 47.0202C237.472 47.0202 237.257 46.9507 237.017 46.8117C236.777 46.6727 236.48 46.5211 236.126 46.3569C235.785 46.18 235.375 46.0221 234.895 45.8831C234.415 45.7315 233.846 45.6557 233.189 45.6557C232.621 45.6557 232.109 45.7315 231.654 45.8831C231.199 46.0221 230.808 46.2179 230.479 46.4706C230.163 46.7233 229.917 47.0202 229.74 47.3613C229.576 47.6897 229.494 48.0498 229.494 48.4414C229.494 48.9341 229.633 49.3447 229.911 49.6732C230.201 50.0017 230.58 50.2859 231.048 50.526C231.515 50.766 232.046 50.9808 232.64 51.1703C233.233 51.3472 233.84 51.543 234.459 51.7577C235.09 51.9599 235.703 52.1873 236.297 52.44C236.891 52.6926 237.421 53.0085 237.889 53.3875C238.356 53.7665 238.729 54.2339 239.007 54.7898C239.297 55.333 239.443 55.99 239.443 56.7606C239.443 57.645 239.285 58.4662 238.969 59.2242C238.653 59.9696 238.186 60.6202 237.567 61.1761C236.948 61.7193 236.19 62.1489 235.293 62.4647C234.396 62.7805 233.36 62.9385 232.185 62.9385C230.846 62.9385 229.633 62.7237 228.546 62.2941C227.46 61.852 226.538 61.2898 225.78 60.6076L226.575 59.3189C226.677 59.1547 226.797 59.0284 226.935 58.9399C227.074 58.8515 227.251 58.8073 227.466 58.8073C227.694 58.8073 227.934 58.8957 228.186 59.0726C228.439 59.2495 228.742 59.4453 229.096 59.66C229.462 59.8748 229.904 60.0706 230.422 60.2475C230.94 60.4244 231.585 60.5128 232.355 60.5128C233.012 60.5128 233.587 60.4307 234.08 60.2665C234.572 60.0896 234.983 59.8559 235.312 59.5653C235.64 59.2747 235.88 58.9399 236.032 58.5609C236.196 58.1819 236.278 57.7776 236.278 57.3481C236.278 56.8175 236.133 56.3816 235.842 56.0405C235.564 55.6868 235.192 55.3899 234.724 55.1499C234.257 54.8972 233.72 54.6824 233.113 54.5055C232.52 54.316 231.907 54.1202 231.275 53.9181C230.656 53.7159 230.043 53.4885 229.437 53.2359C228.843 52.9706 228.313 52.6421 227.845 52.2505C227.378 51.8588 226.999 51.3787 226.708 50.8102C226.43 50.2291 226.291 49.5279 226.291 48.7067C226.291 47.974 226.443 47.2728 226.746 46.6032C227.049 45.921 227.491 45.3273 228.073 44.8219C228.654 44.3039 229.367 43.8933 230.214 43.5901C231.06 43.2869 232.027 43.1353 233.113 43.1353C234.377 43.1353 235.507 43.3375 236.505 43.7417C237.516 44.1334 238.388 44.6766 239.121 45.3715L238.363 46.6032ZM257.956 62.9385C256.44 62.9385 255.272 62.5152 254.451 61.6688C253.642 60.8223 253.238 59.6032 253.238 58.0114V46.2621H250.926C250.724 46.2621 250.553 46.2053 250.414 46.0916C250.275 45.9653 250.206 45.7757 250.206 45.5231V44.1776L253.351 43.7796L254.128 37.8482C254.166 37.6587 254.248 37.5071 254.375 37.3934C254.514 37.267 254.691 37.2039 254.905 37.2039H256.611V43.8175H262.163V46.2621H256.611V57.784C256.611 58.5925 256.807 59.1926 257.198 59.5842C257.59 59.9759 258.095 60.1717 258.714 60.1717C259.068 60.1717 259.371 60.1275 259.624 60.0391C259.889 59.938 260.117 59.8306 260.306 59.7169C260.496 59.6032 260.654 59.5021 260.78 59.4137C260.919 59.3126 261.039 59.2621 261.14 59.2621C261.317 59.2621 261.475 59.3695 261.614 59.5842L262.599 61.195C262.018 61.7383 261.317 62.1678 260.496 62.4837C259.675 62.7869 258.828 62.9385 257.956 62.9385ZM268.432 45.9968C269.253 45.1251 270.163 44.4303 271.161 43.9123C272.159 43.3943 273.309 43.1353 274.61 43.1353C275.658 43.1353 276.581 43.3122 277.377 43.6659C278.185 44.007 278.855 44.4998 279.385 45.1441C279.929 45.7757 280.339 46.5401 280.617 47.4371C280.895 48.334 281.034 49.3258 281.034 50.4123V62.6353H277.642V50.4123C277.642 48.9594 277.307 47.835 276.638 47.0391C275.981 46.2306 274.976 45.8263 273.624 45.8263C272.626 45.8263 271.692 46.0663 270.82 46.5464C269.961 47.0265 269.165 47.6771 268.432 48.4983V62.6353H265.04V34.7214H268.432V45.9968ZM298.416 50.9429C298.416 50.1596 298.302 49.4458 298.075 48.8015C297.86 48.1445 297.538 47.5823 297.108 47.1149C296.691 46.6348 296.18 46.2685 295.573 46.0158C294.967 45.7505 294.278 45.6178 293.508 45.6178C291.891 45.6178 290.608 46.0916 289.661 47.0391C288.726 47.974 288.145 49.2752 287.917 50.9429H298.416ZM301.145 59.9443C300.728 60.4496 300.229 60.8918 299.648 61.2708C299.067 61.6372 298.441 61.9404 297.772 62.1804C297.115 62.4205 296.433 62.5974 295.725 62.7111C295.018 62.8374 294.316 62.9006 293.622 62.9006C292.295 62.9006 291.07 62.6795 289.945 62.2373C288.833 61.7825 287.867 61.1255 287.046 60.2665C286.237 59.3947 285.606 58.3209 285.151 57.0449C284.696 55.7689 284.469 54.3034 284.469 52.6484C284.469 51.3093 284.671 50.0585 285.075 48.8962C285.492 47.734 286.086 46.7296 286.856 45.8831C287.627 45.024 288.568 44.3545 289.68 43.8744C290.792 43.3817 292.042 43.1353 293.432 43.1353C294.582 43.1353 295.643 43.3311 296.616 43.7228C297.601 44.1018 298.448 44.6577 299.155 45.3904C299.875 46.1105 300.437 47.0075 300.842 48.0814C301.246 49.1426 301.448 50.3554 301.448 51.7198C301.448 52.2505 301.391 52.6042 301.277 52.7811C301.164 52.9579 300.949 53.0464 300.633 53.0464H287.804C287.842 54.2592 288.006 55.3141 288.296 56.2111C288.6 57.1081 289.017 57.8598 289.547 58.4662C290.078 59.06 290.709 59.5084 291.442 59.8116C292.175 60.1022 292.996 60.2475 293.906 60.2475C294.752 60.2475 295.479 60.1528 296.085 59.9633C296.704 59.7611 297.235 59.5463 297.677 59.3189C298.119 59.0915 298.485 58.8831 298.776 58.6936C299.079 58.4914 299.338 58.3904 299.553 58.3904C299.831 58.3904 300.046 58.4978 300.197 58.7125L301.145 59.9443ZM326.583 48.0056C325.951 47.1591 325.269 46.5717 324.536 46.2432C323.804 45.9021 322.982 45.7315 322.073 45.7315C320.291 45.7315 318.921 46.3695 317.961 47.6455C317 48.9215 316.52 50.7407 316.52 53.1032C316.52 54.3539 316.628 55.4278 316.843 56.3248C317.057 57.2091 317.373 57.9419 317.79 58.523C318.207 59.0915 318.719 59.5084 319.325 59.7737C319.931 60.0391 320.62 60.1717 321.391 60.1717C322.502 60.1717 323.469 59.919 324.29 59.4137C325.124 58.9083 325.888 58.1946 326.583 57.2723V48.0056ZM329.956 34.7214V62.6353H327.947C327.467 62.6353 327.164 62.4015 327.038 61.9341L326.735 59.6032C325.913 60.5886 324.979 61.3845 323.93 61.9909C322.881 62.5974 321.669 62.9006 320.291 62.9006C319.192 62.9006 318.194 62.6921 317.297 62.2752C316.4 61.8457 315.636 61.2203 315.004 60.3991C314.373 59.5779 313.886 58.5546 313.545 57.3292C313.204 56.1037 313.034 54.6951 313.034 53.1032C313.034 51.6883 313.223 50.3744 313.602 49.1615C313.981 47.9361 314.524 46.8749 315.232 45.9779C315.939 45.0809 316.805 44.3797 317.828 43.8744C318.864 43.3564 320.026 43.0974 321.315 43.0974C322.49 43.0974 323.494 43.2996 324.328 43.7038C325.174 44.0955 325.926 44.645 326.583 45.3525V34.7214H329.956ZM338.24 43.4385V62.6353H334.867V43.4385H338.24ZM338.96 37.4123C338.96 37.7408 338.891 38.0503 338.752 38.3409C338.625 38.6188 338.449 38.8715 338.221 39.0989C338.006 39.3137 337.747 39.4842 337.444 39.6106C337.154 39.7369 336.844 39.8001 336.516 39.8001C336.187 39.8001 335.878 39.7369 335.587 39.6106C335.309 39.4842 335.063 39.3137 334.848 39.0989C334.633 38.8715 334.463 38.6188 334.336 38.3409C334.21 38.0503 334.147 37.7408 334.147 37.4123C334.147 37.0838 334.21 36.7743 334.336 36.4838C334.463 36.1805 334.633 35.9216 334.848 35.7068C335.063 35.4794 335.309 35.3025 335.587 35.1762C335.878 35.0498 336.187 34.9867 336.516 34.9867C336.844 34.9867 337.154 35.0498 337.444 35.1762C337.747 35.3025 338.006 35.4794 338.221 35.7068C338.449 35.9216 338.625 36.1805 338.752 36.4838C338.891 36.7743 338.96 37.0838 338.96 37.4123ZM344.427 62.6353V46.319L342.304 46.0726C342.039 46.0095 341.818 45.9147 341.641 45.7884C341.477 45.6494 341.395 45.4536 341.395 45.2009V43.8175H344.427V42.2447C344.427 41.1455 344.578 40.1728 344.882 39.3263C345.198 38.4672 345.64 37.7471 346.208 37.166C346.789 36.5722 347.484 36.1237 348.293 35.8205C349.101 35.5173 350.011 35.3657 351.022 35.3657C351.881 35.3657 352.67 35.492 353.39 35.7447L353.315 37.4502C353.289 37.7534 353.119 37.9177 352.803 37.9429C352.5 37.9682 352.089 37.9808 351.571 37.9808C350.99 37.9808 350.459 38.0566 349.979 38.2082C349.512 38.3472 349.108 38.5872 348.766 38.9283C348.425 39.2695 348.16 39.7243 347.971 40.2928C347.794 40.8487 347.705 41.5372 347.705 42.3584V43.8175H356.366V41.752C356.366 40.6528 356.517 39.68 356.82 38.8336C357.136 37.9745 357.578 37.2544 358.147 36.6733C358.728 36.0795 359.423 35.631 360.231 35.3278C361.04 35.0246 361.95 34.873 362.96 34.873C363.807 34.873 364.596 34.9993 365.329 35.252L365.253 36.9386C365.228 37.2418 365.057 37.406 364.742 37.4313C364.438 37.4565 364.028 37.4692 363.51 37.4692C362.929 37.4692 362.398 37.545 361.918 37.6966C361.451 37.8482 361.046 38.0945 360.705 38.4356C360.364 38.7767 360.099 39.2252 359.909 39.7811C359.732 40.337 359.644 41.0255 359.644 41.8467V43.8175H365.178V46.2621H359.758V62.6353H356.366V46.2621H347.819V62.6353H344.427ZM379.994 50.9429C379.994 50.1596 379.881 49.4458 379.653 48.8015C379.438 48.1445 379.116 47.5823 378.687 47.1149C378.27 46.6348 377.758 46.2685 377.152 46.0158C376.545 45.7505 375.857 45.6178 375.086 45.6178C373.469 45.6178 372.187 46.0916 371.239 47.0391C370.304 47.974 369.723 49.2752 369.496 50.9429H379.994ZM382.723 59.9443C382.306 60.4496 381.807 60.8918 381.226 61.2708C380.645 61.6372 380.02 61.9404 379.35 62.1804C378.693 62.4205 378.011 62.5974 377.303 62.7111C376.596 62.8374 375.895 62.9006 375.2 62.9006C373.873 62.9006 372.648 62.6795 371.524 62.2373C370.412 61.7825 369.445 61.1255 368.624 60.2665C367.816 59.3947 367.184 58.3209 366.729 57.0449C366.274 55.7689 366.047 54.3034 366.047 52.6484C366.047 51.3093 366.249 50.0585 366.653 48.8962C367.07 47.734 367.664 46.7296 368.435 45.8831C369.205 45.024 370.146 44.3545 371.258 43.8744C372.37 43.3817 373.621 43.1353 375.01 43.1353C376.16 43.1353 377.221 43.3311 378.194 43.7228C379.179 44.1018 380.026 44.6577 380.733 45.3904C381.453 46.1105 382.016 47.0075 382.42 48.0814C382.824 49.1426 383.026 50.3554 383.026 51.7198C383.026 52.2505 382.97 52.6042 382.856 52.7811C382.742 52.9579 382.527 53.0464 382.212 53.0464H369.382C369.42 54.2592 369.584 55.3141 369.875 56.2111C370.178 57.1081 370.595 57.8598 371.126 58.4662C371.656 59.06 372.288 59.5084 373.021 59.8116C373.753 60.1022 374.575 60.2475 375.484 60.2475C376.331 60.2475 377.057 60.1528 377.663 59.9633C378.282 59.7611 378.813 59.5463 379.255 59.3189C379.697 59.0915 380.064 58.8831 380.354 58.6936C380.658 58.4914 380.917 58.3904 381.131 58.3904C381.409 58.3904 381.624 58.4978 381.776 58.7125L382.723 59.9443ZM389.766 47.2855C390.372 45.9716 391.118 44.9482 392.002 44.2155C392.886 43.4701 393.967 43.0974 395.243 43.0974C395.647 43.0974 396.032 43.1416 396.399 43.2301C396.778 43.3185 397.112 43.4575 397.403 43.647L397.157 46.1674C397.081 46.4832 396.891 46.6411 396.588 46.6411C396.411 46.6411 396.152 46.6032 395.811 46.5274C395.47 46.4516 395.085 46.4137 394.655 46.4137C394.049 46.4137 393.505 46.5022 393.025 46.679C392.558 46.8559 392.135 47.1212 391.756 47.475C391.389 47.8161 391.055 48.2456 390.751 48.7636C390.461 49.2689 390.195 49.8501 389.955 50.507V62.6353H386.563V43.4385H388.496C388.863 43.4385 389.115 43.508 389.254 43.647C389.393 43.786 389.488 44.026 389.539 44.3671L389.766 47.2855ZM411.834 50.9429C411.834 50.1596 411.72 49.4458 411.493 48.8015C411.278 48.1445 410.956 47.5823 410.526 47.1149C410.109 46.6348 409.597 46.2685 408.991 46.0158C408.385 45.7505 407.696 45.6178 406.925 45.6178C405.308 45.6178 404.026 46.0916 403.079 47.0391C402.144 47.974 401.563 49.2752 401.335 50.9429H411.834ZM414.562 59.9443C414.146 60.4496 413.647 60.8918 413.065 61.2708C412.484 61.6372 411.859 61.9404 411.189 62.1804C410.532 62.4205 409.85 62.5974 409.143 62.7111C408.435 62.8374 407.734 62.9006 407.039 62.9006C405.713 62.9006 404.487 62.6795 403.363 62.2373C402.251 61.7825 401.285 61.1255 400.463 60.2665C399.655 59.3947 399.023 58.3209 398.568 57.0449C398.114 55.7689 397.886 54.3034 397.886 52.6484C397.886 51.3093 398.088 50.0585 398.493 48.8962C398.909 47.734 399.503 46.7296 400.274 45.8831C401.045 45.024 401.986 44.3545 403.097 43.8744C404.209 43.3817 405.46 43.1353 406.85 43.1353C407.999 43.1353 409.061 43.3311 410.033 43.7228C411.019 44.1018 411.865 44.6577 412.573 45.3904C413.293 46.1105 413.855 47.0075 414.259 48.0814C414.664 49.1426 414.866 50.3554 414.866 51.7198C414.866 52.2505 414.809 52.6042 414.695 52.7811C414.581 52.9579 414.367 53.0464 414.051 53.0464H401.221C401.259 54.2592 401.424 55.3141 401.714 56.2111C402.017 57.1081 402.434 57.8598 402.965 58.4662C403.495 59.06 404.127 59.5084 404.86 59.8116C405.593 60.1022 406.414 60.2475 407.323 60.2475C408.17 60.2475 408.896 60.1528 409.503 59.9633C410.122 59.7611 410.652 59.5463 411.095 59.3189C411.537 59.0915 411.903 58.8831 412.194 58.6936C412.497 58.4914 412.756 58.3904 412.971 58.3904C413.249 58.3904 413.463 58.4978 413.615 58.7125L414.562 59.9443ZM421.586 46.2242C422.003 45.7568 422.445 45.3336 422.913 44.9546C423.38 44.5756 423.873 44.2534 424.391 43.9881C424.921 43.7102 425.477 43.5017 426.059 43.3627C426.652 43.2111 427.29 43.1353 427.972 43.1353C429.021 43.1353 429.943 43.3122 430.739 43.6659C431.548 44.007 432.217 44.4998 432.748 45.1441C433.291 45.7757 433.702 46.5401 433.98 47.4371C434.258 48.334 434.397 49.3258 434.397 50.4123V62.6353H431.005V50.4123C431.005 48.9594 430.67 47.835 430 47.0391C429.343 46.2306 428.339 45.8263 426.987 45.8263C425.989 45.8263 425.054 46.0663 424.182 46.5464C423.323 47.0265 422.527 47.6771 421.795 48.4983V62.6353H418.403V43.4385H420.43C420.91 43.4385 421.207 43.6723 421.321 44.1397L421.586 46.2242ZM452.29 46.8496C452.189 46.9886 452.088 47.096 451.987 47.1718C451.886 47.2476 451.747 47.2855 451.57 47.2855C451.381 47.2855 451.172 47.2097 450.945 47.0581C450.717 46.8938 450.433 46.7169 450.092 46.5274C449.764 46.3379 449.353 46.1674 448.86 46.0158C448.38 45.8515 447.786 45.7694 447.079 45.7694C446.131 45.7694 445.298 45.94 444.577 46.2811C443.857 46.6096 443.251 47.0896 442.758 47.7213C442.278 48.353 441.912 49.1173 441.659 50.0143C441.419 50.9113 441.299 51.9157 441.299 53.0274C441.299 54.1897 441.432 55.2257 441.697 56.1353C441.962 57.0323 442.335 57.7903 442.815 58.4093C443.308 59.0157 443.895 59.4832 444.577 59.8116C445.272 60.1275 446.049 60.2854 446.908 60.2854C447.73 60.2854 448.405 60.1907 448.936 60.0012C449.467 59.799 449.903 59.5779 450.244 59.3379C450.597 59.0979 450.888 58.8831 451.115 58.6936C451.355 58.4914 451.589 58.3904 451.816 58.3904C452.094 58.3904 452.309 58.4978 452.461 58.7125L453.408 59.9443C452.991 60.4623 452.518 60.9045 451.987 61.2708C451.456 61.6372 450.882 61.9467 450.263 62.1994C449.656 62.4394 449.018 62.6163 448.349 62.73C447.679 62.8437 446.997 62.9006 446.302 62.9006C445.102 62.9006 443.984 62.6795 442.948 62.2373C441.924 61.7951 441.034 61.1571 440.276 60.3233C439.518 59.4769 438.924 58.4409 438.494 57.2154C438.065 55.99 437.85 54.594 437.85 53.0274C437.85 51.5998 438.046 50.2796 438.438 49.0668C438.842 47.854 439.423 46.8117 440.181 45.94C440.952 45.0556 441.893 44.3671 443.005 43.8744C444.129 43.3817 445.418 43.1353 446.87 43.1353C448.222 43.1353 449.41 43.3564 450.433 43.7986C451.469 44.2281 452.385 44.8409 453.181 45.6368L452.29 46.8496ZM468.938 50.9429C468.938 50.1596 468.824 49.4458 468.597 48.8015C468.382 48.1445 468.06 47.5823 467.631 47.1149C467.214 46.6348 466.702 46.2685 466.096 46.0158C465.489 45.7505 464.801 45.6178 464.03 45.6178C462.413 45.6178 461.131 46.0916 460.183 47.0391C459.248 47.974 458.667 49.2752 458.44 50.9429H468.938ZM471.667 59.9443C471.25 60.4496 470.751 60.8918 470.17 61.2708C469.589 61.6372 468.963 61.9404 468.294 62.1804C467.637 62.4205 466.955 62.5974 466.247 62.7111C465.54 62.8374 464.839 62.9006 464.144 62.9006C462.817 62.9006 461.592 62.6795 460.467 62.2373C459.356 61.7825 458.389 61.1255 457.568 60.2665C456.759 59.3947 456.128 58.3209 455.673 57.0449C455.218 55.7689 454.991 54.3034 454.991 52.6484C454.991 51.3093 455.193 50.0585 455.597 48.8962C456.014 47.734 456.608 46.7296 457.378 45.8831C458.149 45.024 459.09 44.3545 460.202 43.8744C461.314 43.3817 462.564 43.1353 463.954 43.1353C465.104 43.1353 466.165 43.3311 467.138 43.7228C468.123 44.1018 468.97 44.6577 469.677 45.3904C470.397 46.1105 470.96 47.0075 471.364 48.0814C471.768 49.1426 471.97 50.3554 471.97 51.7198C471.97 52.2505 471.913 52.6042 471.8 52.7811C471.686 52.9579 471.471 53.0464 471.155 53.0464H458.326C458.364 54.2592 458.528 55.3141 458.819 56.2111C459.122 57.1081 459.539 57.8598 460.069 58.4662C460.6 59.06 461.232 59.5084 461.964 59.8116C462.697 60.1022 463.518 60.2475 464.428 60.2475C465.274 60.2475 466.001 60.1528 466.607 59.9633C467.226 59.7611 467.757 59.5463 468.199 59.3189C468.641 59.0915 469.008 58.8831 469.298 58.6936C469.601 58.4914 469.86 58.3904 470.075 58.3904C470.353 58.3904 470.568 58.4978 470.719 58.7125L471.667 59.9443ZM487.99 58.0114C488.609 58.8452 489.285 59.4326 490.018 59.7737C490.763 60.1149 491.578 60.2854 492.462 60.2854C494.269 60.2854 495.652 59.6474 496.612 58.3714C497.573 57.0954 498.053 55.1941 498.053 52.6674C498.053 50.3175 497.623 48.593 496.764 47.4939C495.918 46.3822 494.705 45.8263 493.126 45.8263C492.027 45.8263 491.066 46.079 490.245 46.5843C489.437 47.0896 488.685 47.8034 487.99 48.7257V58.0114ZM487.99 46.2053C488.799 45.2704 489.708 44.525 490.719 43.9691C491.742 43.4133 492.917 43.1353 494.244 43.1353C495.368 43.1353 496.379 43.3501 497.276 43.7796C498.185 44.2092 498.956 44.8345 499.588 45.6557C500.219 46.4643 500.699 47.4497 501.028 48.612C501.369 49.7743 501.54 51.0818 501.54 52.5347C501.54 54.0886 501.35 55.5036 500.971 56.7796C500.592 58.0556 500.043 59.1484 499.322 60.058C498.615 60.955 497.75 61.6562 496.726 62.1615C495.703 62.6542 494.553 62.9006 493.277 62.9006C492.014 62.9006 490.946 62.6668 490.075 62.1994C489.216 61.7193 488.464 61.0434 487.82 60.1717L487.649 61.9151C487.548 62.3952 487.257 62.6353 486.777 62.6353H484.598V34.7214H487.99V46.2053ZM518.048 50.9429C518.048 50.1596 517.934 49.4458 517.707 48.8015C517.492 48.1445 517.17 47.5823 516.74 47.1149C516.324 46.6348 515.812 46.2685 515.205 46.0158C514.599 45.7505 513.911 45.6178 513.14 45.6178C511.523 45.6178 510.24 46.0916 509.293 47.0391C508.358 47.974 507.777 49.2752 507.549 50.9429H518.048ZM520.777 59.9443C520.36 60.4496 519.861 60.8918 519.28 61.2708C518.699 61.6372 518.073 61.9404 517.404 62.1804C516.747 62.4205 516.065 62.5974 515.357 62.7111C514.65 62.8374 513.948 62.9006 513.254 62.9006C511.927 62.9006 510.702 62.6795 509.577 62.2373C508.465 61.7825 507.499 61.1255 506.678 60.2665C505.869 59.3947 505.238 58.3209 504.783 57.0449C504.328 55.7689 504.101 54.3034 504.101 52.6484C504.101 51.3093 504.303 50.0585 504.707 48.8962C505.124 47.734 505.718 46.7296 506.488 45.8831C507.259 45.024 508.2 44.3545 509.312 43.8744C510.424 43.3817 511.674 43.1353 513.064 43.1353C514.214 43.1353 515.275 43.3311 516.248 43.7228C517.233 44.1018 518.08 44.6577 518.787 45.3904C519.507 46.1105 520.069 47.0075 520.474 48.0814C520.878 49.1426 521.08 50.3554 521.08 51.7198C521.08 52.2505 521.023 52.6042 520.91 52.7811C520.796 52.9579 520.581 53.0464 520.265 53.0464H507.436C507.474 54.2592 507.638 55.3141 507.929 56.2111C508.232 57.1081 508.649 57.8598 509.179 58.4662C509.71 59.06 510.342 59.5084 511.074 59.8116C511.807 60.1022 512.628 60.2475 513.538 60.2475C514.384 60.2475 515.111 60.1528 515.717 59.9633C516.336 59.7611 516.867 59.5463 517.309 59.3189C517.751 59.0915 518.117 58.8831 518.408 58.6936C518.711 58.4914 518.97 58.3904 519.185 58.3904C519.463 58.3904 519.678 58.4978 519.829 58.7125L520.777 59.9443ZM530.363 62.9385C528.846 62.9385 527.678 62.5152 526.857 61.6688C526.048 60.8223 525.644 59.6032 525.644 58.0114V46.2621H523.332C523.13 46.2621 522.959 46.2053 522.82 46.0916C522.681 45.9653 522.612 45.7757 522.612 45.5231V44.1776L525.758 43.7796L526.535 37.8482C526.572 37.6587 526.655 37.5071 526.781 37.3934C526.92 37.267 527.097 37.2039 527.311 37.2039H529.017V43.8175H534.569V46.2621H529.017V57.784C529.017 58.5925 529.213 59.1926 529.604 59.5842C529.996 59.9759 530.501 60.1717 531.121 60.1717C531.474 60.1717 531.777 60.1275 532.03 60.0391C532.295 59.938 532.523 59.8306 532.712 59.7169C532.902 59.6032 533.06 59.5021 533.186 59.4137C533.325 59.3126 533.445 59.2621 533.546 59.2621C533.723 59.2621 533.881 59.3695 534.02 59.5842L535.005 61.195C534.424 61.7383 533.723 62.1678 532.902 62.4837C532.081 62.7869 531.234 62.9385 530.363 62.9385ZM563.92 43.4385L557.704 62.6353H555.032C554.704 62.6353 554.476 62.4205 554.35 61.9909L550.105 48.972C550.004 48.6815 549.922 48.3909 549.859 48.1003C549.795 47.7971 549.732 47.5002 549.669 47.2097C549.606 47.5002 549.543 47.7971 549.48 48.1003C549.416 48.3909 549.334 48.6878 549.233 48.991L544.913 61.9909C544.799 62.4205 544.546 62.6353 544.155 62.6353H541.615L535.399 43.4385H538.052C538.318 43.4385 538.539 43.508 538.716 43.647C538.905 43.786 539.032 43.9502 539.095 44.1397L542.771 56.4953C542.986 57.405 543.156 58.264 543.283 59.0726C543.396 58.6557 543.51 58.2325 543.624 57.8029C543.75 57.3734 543.883 56.9375 544.022 56.4953L548.077 44.0639C548.14 43.8744 548.248 43.7165 548.399 43.5901C548.564 43.4638 548.759 43.4006 548.987 43.4006H550.465C550.718 43.4006 550.926 43.4638 551.09 43.5901C551.255 43.7165 551.368 43.8744 551.431 44.0639L555.392 56.4953C555.531 56.9375 555.657 57.3734 555.771 57.8029C555.885 58.2325 555.992 58.6557 556.093 59.0726C556.156 58.6557 556.232 58.2388 556.321 57.8219C556.422 57.3923 556.529 56.9501 556.643 56.4953L560.395 44.1397C560.458 43.9376 560.578 43.7733 560.755 43.647C560.932 43.508 561.14 43.4385 561.38 43.4385H563.92ZM579.187 50.9429C579.187 50.1596 579.073 49.4458 578.846 48.8015C578.631 48.1445 578.309 47.5823 577.879 47.1149C577.462 46.6348 576.951 46.2685 576.344 46.0158C575.738 45.7505 575.049 45.6178 574.279 45.6178C572.662 45.6178 571.379 46.0916 570.432 47.0391C569.497 47.974 568.916 49.2752 568.688 50.9429H579.187ZM581.916 59.9443C581.499 60.4496 581 60.8918 580.419 61.2708C579.838 61.6372 579.212 61.9404 578.543 62.1804C577.886 62.4205 577.203 62.5974 576.496 62.7111C575.788 62.8374 575.087 62.9006 574.392 62.9006C573.066 62.9006 571.84 62.6795 570.716 62.2373C569.604 61.7825 568.638 61.1255 567.817 60.2665C567.008 59.3947 566.376 58.3209 565.922 57.0449C565.467 55.7689 565.239 54.3034 565.239 52.6484C565.239 51.3093 565.442 50.0585 565.846 48.8962C566.263 47.734 566.857 46.7296 567.627 45.8831C568.398 45.024 569.339 44.3545 570.451 43.8744C571.563 43.3817 572.813 43.1353 574.203 43.1353C575.353 43.1353 576.414 43.3311 577.387 43.7228C578.372 44.1018 579.218 44.6577 579.926 45.3904C580.646 46.1105 581.208 47.0075 581.613 48.0814C582.017 49.1426 582.219 50.3554 582.219 51.7198C582.219 52.2505 582.162 52.6042 582.048 52.7811C581.935 52.9579 581.72 53.0464 581.404 53.0464H568.575C568.613 54.2592 568.777 55.3141 569.067 56.2111C569.371 57.1081 569.788 57.8598 570.318 58.4662C570.849 59.06 571.48 59.5084 572.213 59.8116C572.946 60.1022 573.767 60.2475 574.677 60.2475C575.523 60.2475 576.25 60.1528 576.856 59.9633C577.475 59.7611 578.006 59.5463 578.448 59.3189C578.89 59.0915 579.256 58.8831 579.547 58.6936C579.85 58.4914 580.109 58.3904 580.324 58.3904C580.602 58.3904 580.817 58.4978 580.968 58.7125L581.916 59.9443ZM598.604 50.9429C598.604 50.1596 598.491 49.4458 598.263 48.8015C598.048 48.1445 597.726 47.5823 597.297 47.1149C596.88 46.6348 596.368 46.2685 595.762 46.0158C595.155 45.7505 594.467 45.6178 593.696 45.6178C592.079 45.6178 590.797 46.0916 589.849 47.0391C588.914 47.974 588.333 49.2752 588.106 50.9429H598.604ZM601.333 59.9443C600.916 60.4496 600.417 60.8918 599.836 61.2708C599.255 61.6372 598.63 61.9404 597.96 62.1804C597.303 62.4205 596.621 62.5974 595.913 62.7111C595.206 62.8374 594.505 62.9006 593.81 62.9006C592.483 62.9006 591.258 62.6795 590.133 62.2373C589.022 61.7825 588.055 61.1255 587.234 60.2665C586.425 59.3947 585.794 58.3209 585.339 57.0449C584.884 55.7689 584.657 54.3034 584.657 52.6484C584.657 51.3093 584.859 50.0585 585.263 48.8962C585.68 47.734 586.274 46.7296 587.045 45.8831C587.815 45.024 588.756 44.3545 589.868 43.8744C590.98 43.3817 592.231 43.1353 593.62 43.1353C594.77 43.1353 595.831 43.3311 596.804 43.7228C597.789 44.1018 598.636 44.6577 599.343 45.3904C600.063 46.1105 600.626 47.0075 601.03 48.0814C601.434 49.1426 601.636 50.3554 601.636 51.7198C601.636 52.2505 601.579 52.6042 601.466 52.7811C601.352 52.9579 601.137 53.0464 600.821 53.0464H587.992C588.03 54.2592 588.194 55.3141 588.485 56.2111C588.788 57.1081 589.205 57.8598 589.735 58.4662C590.266 59.06 590.898 59.5084 591.631 59.8116C592.363 60.1022 593.184 60.2475 594.094 60.2475C594.941 60.2475 595.667 60.1528 596.273 59.9633C596.892 59.7611 597.423 59.5463 597.865 59.3189C598.307 59.0915 598.674 58.8831 598.964 58.6936C599.268 58.4914 599.526 58.3904 599.741 58.3904C600.019 58.3904 600.234 58.4978 600.386 58.7125L601.333 59.9443ZM608.357 46.2242C608.774 45.7568 609.216 45.3336 609.683 44.9546C610.151 44.5756 610.644 44.2534 611.162 43.9881C611.692 43.7102 612.248 43.5017 612.829 43.3627C613.423 43.2111 614.061 43.1353 614.743 43.1353C615.792 43.1353 616.714 43.3122 617.51 43.6659C618.318 44.007 618.988 44.4998 619.519 45.1441C620.062 45.7757 620.472 46.5401 620.75 47.4371C621.028 48.334 621.167 49.3258 621.167 50.4123V62.6353H617.775V50.4123C617.775 48.9594 617.44 47.835 616.771 47.0391C616.114 46.2306 615.109 45.8263 613.758 45.8263C612.76 45.8263 611.825 46.0663 610.953 46.5464C610.094 47.0265 609.298 47.6771 608.565 48.4983V62.6353H605.173V43.4385H607.201C607.681 43.4385 607.978 43.6723 608.092 44.1397L608.357 46.2242ZM130.076 103.994C128.522 104.044 127.195 104.171 126.096 104.373C125.01 104.562 124.119 104.815 123.424 105.131C122.742 105.447 122.243 105.819 121.927 106.249C121.624 106.679 121.472 107.159 121.472 107.689C121.472 108.195 121.554 108.63 121.719 108.997C121.883 109.363 122.104 109.666 122.382 109.906C122.672 110.134 123.007 110.304 123.386 110.418C123.778 110.519 124.195 110.57 124.637 110.57C125.231 110.57 125.774 110.513 126.267 110.399C126.759 110.273 127.221 110.096 127.65 109.869C128.092 109.641 128.509 109.369 128.901 109.054C129.305 108.738 129.697 108.378 130.076 107.973V103.994ZM119.179 96.1484C120.241 95.1251 121.384 94.3608 122.609 93.8554C123.835 93.3501 125.193 93.0974 126.684 93.0974C127.757 93.0974 128.711 93.2743 129.545 93.628C130.379 93.9818 131.08 94.4745 131.649 95.1062C132.217 95.7378 132.647 96.5022 132.937 97.3992C133.228 98.2961 133.373 99.2816 133.373 100.355V112.635H131.876C131.548 112.635 131.295 112.585 131.118 112.484C130.941 112.37 130.802 112.155 130.701 111.839L130.322 110.02C129.817 110.488 129.324 110.904 128.844 111.271C128.364 111.625 127.859 111.928 127.328 112.18C126.797 112.42 126.229 112.604 125.622 112.73C125.029 112.869 124.365 112.938 123.633 112.938C122.887 112.938 122.186 112.837 121.529 112.635C120.872 112.42 120.297 112.105 119.805 111.688C119.325 111.271 118.939 110.747 118.649 110.115C118.371 109.471 118.232 108.713 118.232 107.841C118.232 107.083 118.44 106.356 118.857 105.662C119.274 104.954 119.95 104.329 120.885 103.785C121.82 103.242 123.039 102.8 124.542 102.459C126.046 102.105 127.89 101.903 130.076 101.852V100.355C130.076 98.8647 129.754 97.7403 129.109 96.9823C128.465 96.2116 127.524 95.8263 126.286 95.8263C125.452 95.8263 124.751 95.9337 124.182 96.1484C123.626 96.3506 123.14 96.5843 122.723 96.8496C122.319 97.1023 121.965 97.336 121.662 97.5508C121.371 97.7529 121.081 97.854 120.79 97.854C120.563 97.854 120.367 97.7971 120.203 97.6834C120.038 97.5571 119.899 97.4055 119.786 97.2286L119.179 96.1484ZM141.089 96.2242C141.505 95.7568 141.948 95.3336 142.415 94.9546C142.883 94.5756 143.375 94.2534 143.893 93.9881C144.424 93.7102 144.98 93.5017 145.561 93.3627C146.155 93.2111 146.793 93.1353 147.475 93.1353C148.523 93.1353 149.446 93.3122 150.242 93.6659C151.05 94.007 151.72 94.4998 152.25 95.1441C152.794 95.7757 153.204 96.5401 153.482 97.4371C153.76 98.334 153.899 99.3258 153.899 100.412V112.635H150.507V100.412C150.507 98.9594 150.172 97.835 149.503 97.0391C148.846 96.2306 147.841 95.8263 146.489 95.8263C145.491 95.8263 144.556 96.0663 143.685 96.5464C142.826 97.0265 142.03 97.6771 141.297 98.4983V112.635H137.905V93.4385H139.933C140.413 93.4385 140.71 93.6723 140.823 94.1397L141.089 96.2242ZM171.086 93.4385V112.635H167.713V93.4385H171.086ZM171.806 87.4123C171.806 87.7408 171.737 88.0503 171.598 88.3409C171.471 88.6188 171.295 88.8715 171.067 89.0989C170.852 89.3137 170.593 89.4842 170.29 89.6106C170 89.7369 169.69 89.8001 169.362 89.8001C169.033 89.8001 168.724 89.7369 168.433 89.6106C168.155 89.4842 167.909 89.3137 167.694 89.0989C167.479 88.8715 167.309 88.6188 167.182 88.3409C167.056 88.0503 166.993 87.7408 166.993 87.4123C166.993 87.0838 167.056 86.7743 167.182 86.4838C167.309 86.1805 167.479 85.9216 167.694 85.7068C167.909 85.4794 168.155 85.3025 168.433 85.1762C168.724 85.0498 169.033 84.9867 169.362 84.9867C169.69 84.9867 170 85.0498 170.29 85.1762C170.593 85.3025 170.852 85.4794 171.067 85.7068C171.295 85.9216 171.471 86.1805 171.598 86.4838C171.737 86.7743 171.806 87.0838 171.806 87.4123ZM184.114 93.1353C185.516 93.1353 186.78 93.3691 187.904 93.8365C189.028 94.3039 189.989 94.9672 190.784 95.8263C191.58 96.6854 192.187 97.7276 192.604 98.9531C193.033 100.166 193.248 101.524 193.248 103.027C193.248 104.543 193.033 105.908 192.604 107.121C192.187 108.334 191.58 109.369 190.784 110.229C189.989 111.088 189.028 111.751 187.904 112.218C186.78 112.673 185.516 112.901 184.114 112.901C182.699 112.901 181.423 112.673 180.286 112.218C179.162 111.751 178.201 111.088 177.405 110.229C176.61 109.369 175.997 108.334 175.567 107.121C175.15 105.908 174.942 104.543 174.942 103.027C174.942 101.524 175.15 100.166 175.567 98.9531C175.997 97.7276 176.61 96.6854 177.405 95.8263C178.201 94.9672 179.162 94.3039 180.286 93.8365C181.423 93.3691 182.699 93.1353 184.114 93.1353ZM184.114 110.266C186.009 110.266 187.424 109.635 188.359 108.371C189.294 107.095 189.761 105.32 189.761 103.046C189.761 100.76 189.294 98.9784 188.359 97.7024C187.424 96.4264 186.009 95.7884 184.114 95.7884C183.154 95.7884 182.314 95.9526 181.593 96.2811C180.886 96.6096 180.292 97.0833 179.812 97.7024C179.345 98.3214 178.991 99.0857 178.751 99.9954C178.524 100.892 178.41 101.909 178.41 103.046C178.41 105.32 178.877 107.095 179.812 108.371C180.76 109.635 182.194 110.266 184.114 110.266ZM200.104 96.2242C200.52 95.7568 200.963 95.3336 201.43 94.9546C201.898 94.5756 202.39 94.2534 202.908 93.9881C203.439 93.7102 203.995 93.5017 204.576 93.3627C205.17 93.2111 205.808 93.1353 206.49 93.1353C207.538 93.1353 208.461 93.3122 209.257 93.6659C210.065 94.007 210.735 94.4998 211.265 95.1441C211.809 95.7757 212.219 96.5401 212.497 97.4371C212.775 98.334 212.914 99.3258 212.914 100.412V112.635H209.522V100.412C209.522 98.9594 209.187 97.835 208.518 97.0391C207.861 96.2306 206.856 95.8263 205.504 95.8263C204.506 95.8263 203.571 96.0663 202.7 96.5464C201.841 97.0265 201.045 97.6771 200.312 98.4983V112.635H196.92V93.4385H198.948C199.428 93.4385 199.725 93.6723 199.838 94.1397L200.104 96.2242ZM221.01 93.4385V112.635H217.637V93.4385H221.01ZM221.73 87.4123C221.73 87.7408 221.661 88.0503 221.522 88.3409C221.396 88.6188 221.219 88.8715 220.991 89.0989C220.777 89.3137 220.518 89.4842 220.214 89.6106C219.924 89.7369 219.614 89.8001 219.286 89.8001C218.957 89.8001 218.648 89.7369 218.357 89.6106C218.079 89.4842 217.833 89.3137 217.618 89.0989C217.403 88.8715 217.233 88.6188 217.106 88.3409C216.98 88.0503 216.917 87.7408 216.917 87.4123C216.917 87.0838 216.98 86.7743 217.106 86.4838C217.233 86.1805 217.403 85.9216 217.618 85.7068C217.833 85.4794 218.079 85.3025 218.357 85.1762C218.648 85.0498 218.957 84.9867 219.286 84.9867C219.614 84.9867 219.924 85.0498 220.214 85.1762C220.518 85.3025 220.777 85.4794 220.991 85.7068C221.219 85.9216 221.396 86.1805 221.522 86.4838C221.661 86.7743 221.73 87.0838 221.73 87.4123ZM239.306 96.8496C239.205 96.9886 239.104 97.096 239.003 97.1718C238.902 97.2476 238.763 97.2855 238.586 97.2855C238.397 97.2855 238.188 97.2097 237.961 97.0581C237.733 96.8938 237.449 96.7169 237.108 96.5274C236.78 96.3379 236.369 96.1674 235.876 96.0158C235.396 95.8515 234.802 95.7694 234.095 95.7694C233.147 95.7694 232.314 95.94 231.593 96.2811C230.873 96.6096 230.267 97.0896 229.774 97.7213C229.294 98.353 228.928 99.1173 228.675 100.014C228.435 100.911 228.315 101.916 228.315 103.027C228.315 104.19 228.448 105.226 228.713 106.135C228.978 107.032 229.351 107.79 229.831 108.409C230.324 109.016 230.911 109.483 231.593 109.812C232.288 110.127 233.065 110.285 233.924 110.285C234.746 110.285 235.421 110.191 235.952 110.001C236.483 109.799 236.918 109.578 237.26 109.338C237.613 109.098 237.904 108.883 238.131 108.694C238.371 108.491 238.605 108.39 238.832 108.39C239.11 108.39 239.325 108.498 239.477 108.713L240.424 109.944C240.007 110.462 239.534 110.904 239.003 111.271C238.472 111.637 237.898 111.947 237.279 112.199C236.672 112.439 236.034 112.616 235.365 112.73C234.695 112.844 234.013 112.901 233.318 112.901C232.118 112.901 231 112.679 229.964 112.237C228.94 111.795 228.05 111.157 227.292 110.323C226.534 109.477 225.94 108.441 225.51 107.215C225.081 105.99 224.866 104.594 224.866 103.027C224.866 101.6 225.062 100.28 225.454 99.0668C225.858 97.854 226.439 96.8117 227.197 95.94C227.968 95.0556 228.909 94.3671 230.021 93.8744C231.145 93.3817 232.434 93.1353 233.886 93.1353C235.238 93.1353 236.426 93.3564 237.449 93.7986C238.485 94.2281 239.401 94.8409 240.197 95.6368L239.306 96.8496ZM262.933 103.994C261.38 104.044 260.053 104.171 258.954 104.373C257.867 104.562 256.977 104.815 256.282 105.131C255.6 105.447 255.101 105.819 254.785 106.249C254.482 106.679 254.33 107.159 254.33 107.689C254.33 108.195 254.412 108.63 254.576 108.997C254.741 109.363 254.962 109.666 255.24 109.906C255.53 110.134 255.865 110.304 256.244 110.418C256.636 110.519 257.053 110.57 257.495 110.57C258.089 110.57 258.632 110.513 259.124 110.399C259.617 110.273 260.078 110.096 260.508 109.869C260.95 109.641 261.367 109.369 261.759 109.054C262.163 108.738 262.554 108.378 262.933 107.973V103.994ZM252.037 96.1484C253.098 95.1251 254.242 94.3608 255.467 93.8554C256.693 93.3501 258.051 93.0974 259.541 93.0974C260.615 93.0974 261.569 93.2743 262.403 93.628C263.237 93.9818 263.938 94.4745 264.506 95.1062C265.075 95.7378 265.504 96.5022 265.795 97.3992C266.086 98.2961 266.231 99.2816 266.231 100.355V112.635H264.734C264.405 112.635 264.153 112.585 263.976 112.484C263.799 112.37 263.66 112.155 263.559 111.839L263.18 110.02C262.675 110.488 262.182 110.904 261.702 111.271C261.222 111.625 260.716 111.928 260.186 112.18C259.655 112.42 259.087 112.604 258.48 112.73C257.886 112.869 257.223 112.938 256.49 112.938C255.745 112.938 255.044 112.837 254.387 112.635C253.73 112.42 253.155 112.105 252.662 111.688C252.182 111.271 251.797 110.747 251.506 110.115C251.228 109.471 251.09 108.713 251.09 107.841C251.09 107.083 251.298 106.356 251.715 105.662C252.132 104.954 252.808 104.329 253.743 103.785C254.677 103.242 255.897 102.8 257.4 102.459C258.903 102.105 260.748 101.903 262.933 101.852V100.355C262.933 98.8647 262.611 97.7403 261.967 96.9823C261.323 96.2116 260.382 95.8263 259.143 95.8263C258.31 95.8263 257.608 95.9337 257.04 96.1484C256.484 96.3506 255.998 96.5843 255.581 96.8496C255.176 97.1023 254.823 97.336 254.52 97.5508C254.229 97.7529 253.938 97.854 253.648 97.854C253.42 97.854 253.225 97.7971 253.06 97.6834C252.896 97.5571 252.757 97.4055 252.643 97.2286L252.037 96.1484ZM273.946 96.2242C274.363 95.7568 274.805 95.3336 275.273 94.9546C275.74 94.5756 276.233 94.2534 276.751 93.9881C277.282 93.7102 277.837 93.5017 278.419 93.3627C279.012 93.2111 279.65 93.1353 280.333 93.1353C281.381 93.1353 282.303 93.3122 283.099 93.6659C283.908 94.007 284.577 94.4998 285.108 95.1441C285.651 95.7757 286.062 96.5401 286.34 97.4371C286.618 98.334 286.757 99.3258 286.757 100.412V112.635H283.365V100.412C283.365 98.9594 283.03 97.835 282.36 97.0391C281.703 96.2306 280.699 95.8263 279.347 95.8263C278.349 95.8263 277.414 96.0663 276.543 96.5464C275.683 97.0265 274.888 97.6771 274.155 98.4983V112.635H270.763V93.4385H272.79C273.27 93.4385 273.567 93.6723 273.681 94.1397L273.946 96.2242ZM303.798 98.0056C303.166 97.1591 302.484 96.5717 301.751 96.2432C301.018 95.9021 300.197 95.7315 299.287 95.7315C297.506 95.7315 296.135 96.3695 295.175 97.6455C294.215 98.9215 293.735 100.741 293.735 103.103C293.735 104.354 293.842 105.428 294.057 106.325C294.272 107.209 294.588 107.942 295.005 108.523C295.422 109.092 295.933 109.508 296.54 109.774C297.146 110.039 297.835 110.172 298.605 110.172C299.717 110.172 300.683 109.919 301.505 109.414C302.338 108.908 303.103 108.195 303.798 107.272V98.0056ZM307.171 84.7214V112.635H305.162C304.682 112.635 304.379 112.402 304.252 111.934L303.949 109.603C303.128 110.589 302.193 111.385 301.145 111.991C300.096 112.597 298.883 112.901 297.506 112.901C296.407 112.901 295.409 112.692 294.512 112.275C293.615 111.846 292.851 111.22 292.219 110.399C291.587 109.578 291.101 108.555 290.76 107.329C290.419 106.104 290.248 104.695 290.248 103.103C290.248 101.688 290.438 100.374 290.817 99.1615C291.196 97.9361 291.739 96.8749 292.446 95.9779C293.154 95.0809 294.019 94.3797 295.043 93.8744C296.078 93.3564 297.241 93.0974 298.529 93.0974C299.704 93.0974 300.709 93.2996 301.542 93.7038C302.389 94.0955 303.141 94.645 303.798 95.3525V84.7214H307.171ZM334.343 96.8496C334.242 96.9886 334.141 97.096 334.04 97.1718C333.939 97.2476 333.8 97.2855 333.623 97.2855C333.433 97.2855 333.225 97.2097 332.997 97.0581C332.77 96.8938 332.486 96.7169 332.145 96.5274C331.816 96.3379 331.406 96.1674 330.913 96.0158C330.433 95.8515 329.839 95.7694 329.132 95.7694C328.184 95.7694 327.35 95.94 326.63 96.2811C325.91 96.6096 325.304 97.0896 324.811 97.7213C324.331 98.353 323.964 99.1173 323.712 100.014C323.472 100.911 323.352 101.916 323.352 103.027C323.352 104.19 323.484 105.226 323.75 106.135C324.015 107.032 324.388 107.79 324.868 108.409C325.36 109.016 325.948 109.483 326.63 109.812C327.325 110.127 328.102 110.285 328.961 110.285C329.782 110.285 330.458 110.191 330.989 110.001C331.519 109.799 331.955 109.578 332.296 109.338C332.65 109.098 332.941 108.883 333.168 108.694C333.408 108.491 333.642 108.39 333.869 108.39C334.147 108.39 334.362 108.498 334.513 108.713L335.461 109.944C335.044 110.462 334.57 110.904 334.04 111.271C333.509 111.637 332.934 111.947 332.315 112.199C331.709 112.439 331.071 112.616 330.401 112.73C329.732 112.844 329.049 112.901 328.355 112.901C327.154 112.901 326.036 112.679 325 112.237C323.977 111.795 323.086 111.157 322.328 110.323C321.57 109.477 320.977 108.441 320.547 107.215C320.117 105.99 319.903 104.594 319.903 103.027C319.903 101.6 320.099 100.28 320.49 99.0668C320.894 97.854 321.476 96.8117 322.234 95.94C323.004 95.0556 323.945 94.3671 325.057 93.8744C326.182 93.3817 327.47 93.1353 328.923 93.1353C330.275 93.1353 331.462 93.3564 332.486 93.7986C333.522 94.2281 334.438 94.8409 335.234 95.6368L334.343 96.8496ZM346.234 93.1353C347.637 93.1353 348.9 93.3691 350.024 93.8365C351.149 94.3039 352.109 94.9672 352.905 95.8263C353.701 96.6854 354.307 97.7276 354.724 98.9531C355.154 100.166 355.368 101.524 355.368 103.027C355.368 104.543 355.154 105.908 354.724 107.121C354.307 108.334 353.701 109.369 352.905 110.229C352.109 111.088 351.149 111.751 350.024 112.218C348.9 112.673 347.637 112.901 346.234 112.901C344.819 112.901 343.543 112.673 342.406 112.218C341.282 111.751 340.322 111.088 339.526 110.229C338.73 109.369 338.117 108.334 337.688 107.121C337.271 105.908 337.062 104.543 337.062 103.027C337.062 101.524 337.271 100.166 337.688 98.9531C338.117 97.7276 338.73 96.6854 339.526 95.8263C340.322 94.9672 341.282 94.3039 342.406 93.8365C343.543 93.3691 344.819 93.1353 346.234 93.1353ZM346.234 110.266C348.129 110.266 349.544 109.635 350.479 108.371C351.414 107.095 351.881 105.32 351.881 103.046C351.881 100.76 351.414 98.9784 350.479 97.7024C349.544 96.4264 348.129 95.7884 346.234 95.7884C345.274 95.7884 344.434 95.9526 343.714 96.2811C343.006 96.6096 342.413 97.0833 341.933 97.7024C341.465 98.3214 341.111 99.0857 340.871 99.9954C340.644 100.892 340.53 101.909 340.53 103.046C340.53 105.32 340.998 107.095 341.933 108.371C342.88 109.635 344.314 110.266 346.234 110.266ZM374.971 93.4385L367.144 112.635H364.112L356.286 93.4385H359.034C359.312 93.4385 359.539 93.508 359.716 93.647C359.893 93.786 360.013 93.9502 360.076 94.1397L364.946 106.495C365.098 106.963 365.231 107.418 365.344 107.86C365.458 108.302 365.565 108.744 365.666 109.186C365.767 108.744 365.875 108.302 365.989 107.86C366.102 107.418 366.241 106.963 366.405 106.495L371.333 94.1397C371.408 93.9376 371.535 93.7733 371.712 93.647C371.888 93.508 372.097 93.4385 372.337 93.4385H374.971ZM387.455 103.994C385.901 104.044 384.574 104.171 383.475 104.373C382.389 104.562 381.498 104.815 380.803 105.131C380.121 105.447 379.622 105.819 379.306 106.249C379.003 106.679 378.851 107.159 378.851 107.689C378.851 108.195 378.933 108.63 379.098 108.997C379.262 109.363 379.483 109.666 379.761 109.906C380.052 110.134 380.386 110.304 380.765 110.418C381.157 110.519 381.574 110.57 382.016 110.57C382.61 110.57 383.153 110.513 383.646 110.399C384.139 110.273 384.6 110.096 385.029 109.869C385.471 109.641 385.888 109.369 386.28 109.054C386.684 108.738 387.076 108.378 387.455 107.973V103.994ZM376.558 96.1484C377.62 95.1251 378.763 94.3608 379.988 93.8554C381.214 93.3501 382.572 93.0974 384.063 93.0974C385.137 93.0974 386.09 93.2743 386.924 93.628C387.758 93.9818 388.459 94.4745 389.028 95.1062C389.596 95.7378 390.026 96.5022 390.316 97.3992C390.607 98.2961 390.752 99.2816 390.752 100.355V112.635H389.255C388.927 112.635 388.674 112.585 388.497 112.484C388.32 112.37 388.181 112.155 388.08 111.839L387.701 110.02C387.196 110.488 386.703 110.904 386.223 111.271C385.743 111.625 385.238 111.928 384.707 112.18C384.176 112.42 383.608 112.604 383.002 112.73C382.408 112.869 381.744 112.938 381.012 112.938C380.266 112.938 379.565 112.837 378.908 112.635C378.251 112.42 377.676 112.105 377.184 111.688C376.704 111.271 376.318 110.747 376.028 110.115C375.75 109.471 375.611 108.713 375.611 107.841C375.611 107.083 375.819 106.356 376.236 105.662C376.653 104.954 377.329 104.329 378.264 103.785C379.199 103.242 380.418 102.8 381.921 102.459C383.425 102.105 385.269 101.903 387.455 101.852V100.355C387.455 98.8647 387.133 97.7403 386.488 96.9823C385.844 96.2116 384.903 95.8263 383.665 95.8263C382.831 95.8263 382.13 95.9337 381.561 96.1484C381.005 96.3506 380.519 96.5843 380.102 96.8496C379.698 97.1023 379.344 97.336 379.041 97.5508C378.75 97.7529 378.46 97.854 378.169 97.854C377.942 97.854 377.746 97.7971 377.582 97.6834C377.417 97.5571 377.278 97.4055 377.165 97.2286L376.558 96.1484ZM398.771 84.7214V112.635H395.398V84.7214H398.771ZM416.483 100.943C416.483 100.16 416.369 99.4458 416.142 98.8015C415.927 98.1445 415.605 97.5823 415.175 97.1149C414.758 96.6348 414.247 96.2685 413.64 96.0158C413.034 95.7505 412.345 95.6178 411.575 95.6178C409.958 95.6178 408.675 96.0916 407.728 97.0391C406.793 97.974 406.212 99.2752 405.984 100.943H416.483ZM419.212 109.944C418.795 110.45 418.296 110.892 417.715 111.271C417.134 111.637 416.508 111.94 415.839 112.18C415.182 112.42 414.499 112.597 413.792 112.711C413.085 112.837 412.383 112.901 411.688 112.901C410.362 112.901 409.137 112.679 408.012 112.237C406.9 111.782 405.934 111.126 405.113 110.266C404.304 109.395 403.672 108.321 403.218 107.045C402.763 105.769 402.535 104.303 402.535 102.648C402.535 101.309 402.738 100.059 403.142 98.8962C403.559 97.734 404.153 96.7296 404.923 95.8831C405.694 95.024 406.635 94.3545 407.747 93.8744C408.859 93.3817 410.109 93.1353 411.499 93.1353C412.649 93.1353 413.71 93.3311 414.683 93.7228C415.668 94.1018 416.515 94.6577 417.222 95.3904C417.942 96.1105 418.504 97.0075 418.909 98.0814C419.313 99.1426 419.515 100.355 419.515 101.72C419.515 102.25 419.458 102.604 419.344 102.781C419.231 102.958 419.016 103.046 418.7 103.046H405.871C405.909 104.259 406.073 105.314 406.363 106.211C406.667 107.108 407.084 107.86 407.614 108.466C408.145 109.06 408.776 109.508 409.509 109.812C410.242 110.102 411.063 110.248 411.973 110.248C412.819 110.248 413.546 110.153 414.152 109.963C414.771 109.761 415.302 109.546 415.744 109.319C416.186 109.092 416.552 108.883 416.843 108.694C417.146 108.491 417.405 108.39 417.62 108.39C417.898 108.39 418.113 108.498 418.264 108.713L419.212 109.944ZM426.236 96.2242C426.652 95.7568 427.095 95.3336 427.562 94.9546C428.03 94.5756 428.522 94.2534 429.04 93.9881C429.571 93.7102 430.127 93.5017 430.708 93.3627C431.302 93.2111 431.94 93.1353 432.622 93.1353C433.67 93.1353 434.593 93.3122 435.389 93.6659C436.197 94.007 436.867 94.4998 437.397 95.1441C437.941 95.7757 438.351 96.5401 438.629 97.4371C438.907 98.334 439.046 99.3258 439.046 100.412V112.635H435.654V100.412C435.654 98.9594 435.319 97.835 434.65 97.0391C433.993 96.2306 432.988 95.8263 431.636 95.8263C430.638 95.8263 429.703 96.0663 428.832 96.5464C427.973 97.0265 427.177 97.6771 426.444 98.4983V112.635H423.052V93.4385H425.08C425.56 93.4385 425.857 93.6723 425.97 94.1397L426.236 96.2242ZM449.214 112.938C447.698 112.938 446.529 112.515 445.708 111.669C444.9 110.822 444.495 109.603 444.495 108.011V96.2621H442.183C441.981 96.2621 441.811 96.2053 441.672 96.0916C441.533 95.9653 441.463 95.7757 441.463 95.5231V94.1776L444.609 93.7796L445.386 87.8482C445.424 87.6587 445.506 87.5071 445.632 87.3934C445.771 87.267 445.948 87.2039 446.163 87.2039H447.869V93.8175H453.421V96.2621H447.869V107.784C447.869 108.593 448.064 109.193 448.456 109.584C448.848 109.976 449.353 110.172 449.972 110.172C450.326 110.172 450.629 110.127 450.882 110.039C451.147 109.938 451.374 109.831 451.564 109.717C451.753 109.603 451.911 109.502 452.038 109.414C452.177 109.313 452.297 109.262 452.398 109.262C452.575 109.262 452.733 109.369 452.871 109.584L453.857 111.195C453.276 111.738 452.575 112.168 451.753 112.484C450.932 112.787 450.086 112.938 449.214 112.938ZM468.781 108.011C469.4 108.845 470.076 109.433 470.808 109.774C471.554 110.115 472.369 110.285 473.253 110.285C475.059 110.285 476.443 109.647 477.403 108.371C478.363 107.095 478.843 105.194 478.843 102.667C478.843 100.318 478.414 98.593 477.555 97.4939C476.708 96.3822 475.495 95.8263 473.916 95.8263C472.817 95.8263 471.857 96.079 471.036 96.5843C470.227 97.0896 469.475 97.8034 468.781 98.7257V108.011ZM468.781 96.2053C469.589 95.2704 470.499 94.525 471.509 93.9691C472.533 93.4133 473.708 93.1353 475.034 93.1353C476.159 93.1353 477.169 93.3501 478.066 93.7796C478.976 94.2092 479.747 94.8345 480.378 95.6557C481.01 96.4643 481.49 97.4497 481.818 98.612C482.16 99.7743 482.33 101.082 482.33 102.535C482.33 104.089 482.141 105.504 481.762 106.78C481.383 108.056 480.833 109.148 480.113 110.058C479.405 110.955 478.54 111.656 477.517 112.161C476.493 112.654 475.344 112.901 474.068 112.901C472.804 112.901 471.737 112.667 470.865 112.199C470.006 111.719 469.254 111.043 468.61 110.172L468.44 111.915C468.338 112.395 468.048 112.635 467.568 112.635H465.388V84.7214H468.781V96.2053ZM494.082 93.1353C495.484 93.1353 496.748 93.3691 497.872 93.8365C498.996 94.3039 499.957 94.9672 500.753 95.8263C501.548 96.6854 502.155 97.7276 502.572 98.9531C503.001 100.166 503.216 101.524 503.216 103.027C503.216 104.543 503.001 105.908 502.572 107.121C502.155 108.334 501.548 109.369 500.753 110.229C499.957 111.088 498.996 111.751 497.872 112.218C496.748 112.673 495.484 112.901 494.082 112.901C492.667 112.901 491.391 112.673 490.254 112.218C489.13 111.751 488.169 111.088 487.374 110.229C486.578 109.369 485.965 108.334 485.535 107.121C485.118 105.908 484.91 104.543 484.91 103.027C484.91 101.524 485.118 100.166 485.535 98.9531C485.965 97.7276 486.578 96.6854 487.374 95.8263C488.169 94.9672 489.13 94.3039 490.254 93.8365C491.391 93.3691 492.667 93.1353 494.082 93.1353ZM494.082 110.266C495.977 110.266 497.392 109.635 498.327 108.371C499.262 107.095 499.729 105.32 499.729 103.046C499.729 100.76 499.262 98.9784 498.327 97.7024C497.392 96.4264 495.977 95.7884 494.082 95.7884C493.122 95.7884 492.282 95.9526 491.562 96.2811C490.854 96.6096 490.26 97.0833 489.78 97.7024C489.313 98.3214 488.959 99.0857 488.719 99.9954C488.492 100.892 488.378 101.909 488.378 103.046C488.378 105.32 488.845 107.095 489.78 108.371C490.728 109.635 492.162 110.266 494.082 110.266ZM510.072 96.2242C510.489 95.7568 510.931 95.3336 511.398 94.9546C511.866 94.5756 512.358 94.2534 512.876 93.9881C513.407 93.7102 513.963 93.5017 514.544 93.3627C515.138 93.2111 515.776 93.1353 516.458 93.1353C517.507 93.1353 518.429 93.3122 519.225 93.6659C520.033 94.007 520.703 94.4998 521.233 95.1441C521.777 95.7757 522.187 96.5401 522.465 97.4371C522.743 98.334 522.882 99.3258 522.882 100.412V112.635H519.49V100.412C519.49 98.9594 519.155 97.835 518.486 97.0391C517.829 96.2306 516.824 95.8263 515.473 95.8263C514.474 95.8263 513.54 96.0663 512.668 96.5464C511.809 97.0265 511.013 97.6771 510.28 98.4983V112.635H506.888V93.4385H508.916C509.396 93.4385 509.693 93.6723 509.806 94.1397L510.072 96.2242ZM539.923 98.0056C539.291 97.1591 538.609 96.5717 537.876 96.2432C537.144 95.9021 536.322 95.7315 535.413 95.7315C533.631 95.7315 532.261 96.3695 531.301 97.6455C530.34 98.9215 529.86 100.741 529.86 103.103C529.86 104.354 529.968 105.428 530.182 106.325C530.397 107.209 530.713 107.942 531.13 108.523C531.547 109.092 532.059 109.508 532.665 109.774C533.271 110.039 533.96 110.172 534.731 110.172C535.842 110.172 536.809 109.919 537.63 109.414C538.464 108.908 539.228 108.195 539.923 107.272V98.0056ZM543.296 84.7214V112.635H541.287C540.807 112.635 540.504 112.402 540.378 111.934L540.075 109.603C539.253 110.589 538.318 111.385 537.27 111.991C536.221 112.597 535.008 112.901 533.631 112.901C532.532 112.901 531.534 112.692 530.637 112.275C529.74 111.846 528.976 111.22 528.344 110.399C527.713 109.578 527.226 108.555 526.885 107.329C526.544 106.104 526.373 104.695 526.373 103.103C526.373 101.688 526.563 100.374 526.942 99.1615C527.321 97.9361 527.864 96.8749 528.572 95.9779C529.279 95.0809 530.145 94.3797 531.168 93.8744C532.204 93.3564 533.366 93.0974 534.655 93.0974C535.83 93.0974 536.834 93.2996 537.668 93.7038C538.514 94.0955 539.266 94.645 539.923 95.3525V84.7214H543.296ZM546.88 87.905C547.272 87.5387 547.702 87.1912 548.169 86.8628C548.649 86.5343 549.167 86.2437 549.723 85.991C550.291 85.7384 550.898 85.5425 551.542 85.4036C552.199 85.252 552.907 85.1762 553.665 85.1762C554.663 85.1762 555.585 85.3215 556.431 85.612C557.29 85.9026 558.03 86.3132 558.649 86.8438C559.268 87.3744 559.754 88.0187 560.108 88.7767C560.462 89.5348 560.638 90.3875 560.638 91.335C560.638 92.2952 560.493 93.1227 560.203 93.8175C559.925 94.5124 559.565 95.1251 559.122 95.6557C558.693 96.1737 558.219 96.6285 557.701 97.0202C557.196 97.3992 556.716 97.7592 556.261 98.1003C555.806 98.4414 555.414 98.7825 555.086 99.1236C554.77 99.4648 554.587 99.8438 554.536 100.261L554.195 103.16H551.883L551.656 100.014C551.605 99.4458 551.713 98.9531 551.978 98.5362C552.243 98.1066 552.591 97.7087 553.02 97.3423C553.45 96.9633 553.924 96.5969 554.442 96.2432C554.96 95.8768 555.44 95.4725 555.882 95.0304C556.337 94.5882 556.716 94.0892 557.019 93.5333C557.322 92.9648 557.474 92.2889 557.474 91.5056C557.474 90.9624 557.366 90.4696 557.152 90.0275C556.937 89.5853 556.646 89.2126 556.28 88.9094C555.913 88.5936 555.478 88.3535 554.972 88.1893C554.48 88.025 553.949 87.9429 553.38 87.9429C552.61 87.9429 551.946 88.0377 551.391 88.2272C550.847 88.4167 550.386 88.6251 550.007 88.8525C549.628 89.08 549.319 89.2884 549.079 89.4779C548.851 89.6674 548.662 89.7622 548.51 89.7622C548.194 89.7622 547.948 89.6169 547.771 89.3263L546.88 87.905ZM550.576 110.551C550.576 110.222 550.633 109.913 550.746 109.622C550.873 109.332 551.037 109.079 551.239 108.864C551.454 108.649 551.706 108.479 551.997 108.352C552.288 108.226 552.597 108.163 552.926 108.163C553.254 108.163 553.564 108.226 553.854 108.352C554.145 108.479 554.397 108.649 554.612 108.864C554.827 109.079 554.997 109.332 555.124 109.622C555.25 109.913 555.313 110.222 555.313 110.551C555.313 110.892 555.25 111.208 555.124 111.498C554.997 111.776 554.827 112.023 554.612 112.237C554.397 112.452 554.145 112.616 553.854 112.73C553.564 112.856 553.254 112.92 552.926 112.92C552.597 112.92 552.288 112.856 551.997 112.73C551.706 112.616 551.454 112.452 551.239 112.237C551.037 112.023 550.873 111.776 550.746 111.498C550.633 111.208 550.576 110.892 550.576 110.551Z" fill="white"/>
<rect width="657.224" height="146" rx="32.3181" transform="matrix(-1 0 0 1 708.225 179)" fill="black"/>
<path d="M705.95 292.629C713.995 311.935 722.458 319.21 738.5 326.5C741.374 328.763 761.59 333.483 745.5 336.5C725.387 340.271 690.147 331.091 670.034 324.304C649.922 317.516 695.894 268.495 705.95 292.629Z" fill="black"/>
<path d="M155.659 238.979L147.188 266.135H143.891L137.012 245.423C136.948 245.22 136.885 245.006 136.822 244.778C136.772 244.551 136.715 244.311 136.652 244.058C136.588 244.311 136.525 244.551 136.462 244.778C136.399 245.006 136.336 245.22 136.273 245.423L129.356 266.135H126.058L117.587 238.979H120.638C120.967 238.979 121.239 239.062 121.453 239.226C121.681 239.39 121.826 239.598 121.889 239.851L127.499 258.726C127.587 259.067 127.669 259.433 127.745 259.825C127.833 260.216 127.915 260.633 127.991 261.076C128.08 260.633 128.168 260.216 128.257 259.825C128.358 259.421 128.465 259.054 128.579 258.726L134.965 239.851C135.041 239.636 135.186 239.441 135.401 239.264C135.628 239.074 135.9 238.979 136.216 238.979H137.277C137.605 238.979 137.871 239.062 138.073 239.226C138.275 239.39 138.427 239.598 138.528 239.851L144.895 258.726C145.009 259.054 145.11 259.408 145.198 259.787C145.299 260.166 145.394 260.564 145.482 260.981C145.546 260.564 145.615 260.166 145.691 259.787C145.767 259.408 145.849 259.054 145.937 258.726L151.565 239.851C151.629 239.624 151.768 239.422 151.982 239.245C152.21 239.068 152.481 238.979 152.797 238.979H155.659ZM161.506 249.497C162.327 248.625 163.237 247.93 164.235 247.412C165.233 246.894 166.382 246.635 167.684 246.635C168.732 246.635 169.654 246.812 170.45 247.166C171.259 247.507 171.929 248 172.459 248.644C173.002 249.276 173.413 250.04 173.691 250.937C173.969 251.834 174.108 252.826 174.108 253.912V266.135H170.716V253.912C170.716 252.459 170.381 251.335 169.711 250.539C169.054 249.731 168.05 249.326 166.698 249.326C165.7 249.326 164.765 249.566 163.894 250.046C163.034 250.526 162.239 251.177 161.506 251.998V266.135H158.114V238.221H161.506V249.497ZM191.49 254.443C191.49 253.66 191.376 252.946 191.149 252.301C190.934 251.645 190.612 251.082 190.182 250.615C189.765 250.135 189.254 249.768 188.647 249.516C188.041 249.25 187.352 249.118 186.582 249.118C184.964 249.118 183.682 249.592 182.735 250.539C181.8 251.474 181.219 252.775 180.991 254.443H191.49ZM194.219 263.444C193.802 263.95 193.303 264.392 192.722 264.771C192.14 265.137 191.515 265.44 190.845 265.68C190.188 265.92 189.506 266.097 188.799 266.211C188.091 266.337 187.39 266.401 186.695 266.401C185.369 266.401 184.143 266.179 183.019 265.737C181.907 265.282 180.941 264.626 180.12 263.766C179.311 262.895 178.679 261.821 178.224 260.545C177.77 259.269 177.542 257.803 177.542 256.148C177.542 254.809 177.744 253.559 178.149 252.396C178.566 251.234 179.159 250.23 179.93 249.383C180.701 248.524 181.642 247.854 182.754 247.374C183.865 246.882 185.116 246.635 186.506 246.635C187.655 246.635 188.717 246.831 189.689 247.223C190.675 247.602 191.521 248.158 192.229 248.89C192.949 249.611 193.511 250.508 193.915 251.581C194.32 252.643 194.522 253.855 194.522 255.22C194.522 255.75 194.465 256.104 194.351 256.281C194.238 256.458 194.023 256.546 193.707 256.546H180.878C180.915 257.759 181.08 258.814 181.37 259.711C181.673 260.608 182.09 261.36 182.621 261.966C183.152 262.56 183.783 263.008 184.516 263.312C185.249 263.602 186.07 263.748 186.98 263.748C187.826 263.748 188.552 263.653 189.159 263.463C189.778 263.261 190.308 263.046 190.751 262.819C191.193 262.592 191.559 262.383 191.85 262.194C192.153 261.991 192.412 261.89 192.627 261.89C192.905 261.89 193.119 261.998 193.271 262.213L194.219 263.444ZM201.242 249.724C201.659 249.257 202.101 248.834 202.569 248.455C203.036 248.076 203.529 247.753 204.047 247.488C204.578 247.21 205.133 247.002 205.715 246.863C206.308 246.711 206.946 246.635 207.629 246.635C208.677 246.635 209.599 246.812 210.395 247.166C211.204 247.507 211.874 248 212.404 248.644C212.947 249.276 213.358 250.04 213.636 250.937C213.914 251.834 214.053 252.826 214.053 253.912V266.135H210.661V253.912C210.661 252.459 210.326 251.335 209.656 250.539C208.999 249.731 207.995 249.326 206.643 249.326C205.645 249.326 204.71 249.566 203.839 250.046C202.979 250.526 202.184 251.177 201.451 251.998V266.135H198.059V246.939H200.086C200.566 246.939 200.863 247.172 200.977 247.64L201.242 249.724ZM231.24 246.939V266.135H227.867V246.939H231.24ZM231.96 240.912C231.96 241.241 231.891 241.55 231.752 241.841C231.625 242.119 231.448 242.371 231.221 242.599C231.006 242.814 230.747 242.984 230.444 243.111C230.153 243.237 229.844 243.3 229.515 243.3C229.187 243.3 228.877 243.237 228.587 243.111C228.309 242.984 228.063 242.814 227.848 242.599C227.633 242.371 227.462 242.119 227.336 241.841C227.21 241.55 227.147 241.241 227.147 240.912C227.147 240.584 227.21 240.274 227.336 239.984C227.462 239.681 227.633 239.422 227.848 239.207C228.063 238.979 228.309 238.803 228.587 238.676C228.877 238.55 229.187 238.487 229.515 238.487C229.844 238.487 230.153 238.55 230.444 238.676C230.747 238.803 231.006 238.979 231.221 239.207C231.448 239.422 231.625 239.681 231.752 239.984C231.891 240.274 231.96 240.584 231.96 240.912ZM247.357 250.103C247.205 250.381 246.971 250.52 246.655 250.52C246.466 250.52 246.251 250.451 246.011 250.312C245.771 250.173 245.474 250.021 245.12 249.857C244.779 249.68 244.369 249.522 243.889 249.383C243.409 249.232 242.84 249.156 242.183 249.156C241.615 249.156 241.103 249.232 240.648 249.383C240.193 249.522 239.802 249.718 239.473 249.971C239.157 250.223 238.911 250.52 238.734 250.861C238.57 251.19 238.488 251.55 238.488 251.941C238.488 252.434 238.627 252.845 238.905 253.173C239.195 253.502 239.574 253.786 240.042 254.026C240.509 254.266 241.04 254.481 241.634 254.67C242.227 254.847 242.834 255.043 243.453 255.258C244.084 255.46 244.697 255.687 245.291 255.94C245.885 256.193 246.415 256.508 246.883 256.887C247.35 257.266 247.723 257.734 248.001 258.29C248.291 258.833 248.437 259.49 248.437 260.261C248.437 261.145 248.279 261.966 247.963 262.724C247.647 263.47 247.18 264.12 246.561 264.676C245.942 265.219 245.184 265.649 244.287 265.965C243.39 266.281 242.354 266.438 241.179 266.438C239.84 266.438 238.627 266.224 237.54 265.794C236.454 265.352 235.532 264.79 234.774 264.108L235.569 262.819C235.671 262.655 235.791 262.528 235.93 262.44C236.068 262.351 236.245 262.307 236.46 262.307C236.688 262.307 236.928 262.396 237.18 262.573C237.433 262.749 237.736 262.945 238.09 263.16C238.456 263.375 238.898 263.571 239.416 263.748C239.934 263.924 240.579 264.013 241.349 264.013C242.006 264.013 242.581 263.931 243.074 263.766C243.567 263.59 243.977 263.356 244.306 263.065C244.634 262.775 244.874 262.44 245.026 262.061C245.19 261.682 245.272 261.278 245.272 260.848C245.272 260.317 245.127 259.882 244.836 259.541C244.558 259.187 244.186 258.89 243.718 258.65C243.251 258.397 242.714 258.182 242.107 258.006C241.514 257.816 240.901 257.62 240.269 257.418C239.65 257.216 239.037 256.989 238.431 256.736C237.837 256.471 237.307 256.142 236.839 255.75C236.372 255.359 235.993 254.879 235.702 254.31C235.424 253.729 235.285 253.028 235.285 252.207C235.285 251.474 235.437 250.773 235.74 250.103C236.043 249.421 236.485 248.827 237.067 248.322C237.648 247.804 238.361 247.393 239.208 247.09C240.054 246.787 241.021 246.635 242.107 246.635C243.371 246.635 244.501 246.837 245.499 247.242C246.51 247.633 247.382 248.177 248.115 248.871L247.357 250.103ZM266.95 266.438C265.434 266.438 264.266 266.015 263.445 265.169C262.636 264.322 262.232 263.103 262.232 261.511V249.762H259.92C259.718 249.762 259.547 249.705 259.408 249.592C259.269 249.465 259.2 249.276 259.2 249.023V247.678L262.345 247.28L263.122 241.348C263.16 241.159 263.242 241.007 263.369 240.893C263.508 240.767 263.685 240.704 263.899 240.704H265.605V247.318H271.157V249.762H265.605V261.284C265.605 262.093 265.801 262.693 266.192 263.084C266.584 263.476 267.089 263.672 267.708 263.672C268.062 263.672 268.365 263.627 268.618 263.539C268.883 263.438 269.111 263.331 269.3 263.217C269.49 263.103 269.648 263.002 269.774 262.914C269.913 262.813 270.033 262.762 270.134 262.762C270.311 262.762 270.469 262.869 270.608 263.084L271.593 264.695C271.012 265.238 270.311 265.668 269.49 265.984C268.669 266.287 267.822 266.438 266.95 266.438ZM277.426 249.497C278.247 248.625 279.157 247.93 280.155 247.412C281.153 246.894 282.303 246.635 283.604 246.635C284.652 246.635 285.575 246.812 286.371 247.166C287.179 247.507 287.849 248 288.379 248.644C288.923 249.276 289.333 250.04 289.611 250.937C289.889 251.834 290.028 252.826 290.028 253.912V266.135H286.636V253.912C286.636 252.459 286.301 251.335 285.632 250.539C284.975 249.731 283.97 249.326 282.618 249.326C281.62 249.326 280.686 249.566 279.814 250.046C278.955 250.526 278.159 251.177 277.426 251.998V266.135H274.034V238.221H277.426V249.497ZM307.41 254.443C307.41 253.66 307.296 252.946 307.069 252.301C306.854 251.645 306.532 251.082 306.102 250.615C305.686 250.135 305.174 249.768 304.567 249.516C303.961 249.25 303.273 249.118 302.502 249.118C300.885 249.118 299.602 249.592 298.655 250.539C297.72 251.474 297.139 252.775 296.911 254.443H307.41ZM310.139 263.444C309.722 263.95 309.223 264.392 308.642 264.771C308.061 265.137 307.435 265.44 306.766 265.68C306.109 265.92 305.427 266.097 304.719 266.211C304.012 266.337 303.31 266.401 302.616 266.401C301.289 266.401 300.064 266.179 298.939 265.737C297.827 265.282 296.861 264.626 296.04 263.766C295.231 262.895 294.6 261.821 294.145 260.545C293.69 259.269 293.463 257.803 293.463 256.148C293.463 254.809 293.665 253.559 294.069 252.396C294.486 251.234 295.08 250.23 295.85 249.383C296.621 248.524 297.562 247.854 298.674 247.374C299.786 246.882 301.036 246.635 302.426 246.635C303.576 246.635 304.637 246.831 305.61 247.223C306.595 247.602 307.442 248.158 308.149 248.89C308.869 249.611 309.431 250.508 309.836 251.581C310.24 252.643 310.442 253.855 310.442 255.22C310.442 255.75 310.385 256.104 310.272 256.281C310.158 256.458 309.943 256.546 309.627 256.546H296.798C296.836 257.759 297 258.814 297.291 259.711C297.594 260.608 298.011 261.36 298.541 261.966C299.072 262.56 299.704 263.008 300.436 263.312C301.169 263.602 301.99 263.748 302.9 263.748C303.746 263.748 304.473 263.653 305.079 263.463C305.698 263.261 306.229 263.046 306.671 262.819C307.113 262.592 307.479 262.383 307.77 262.194C308.073 261.991 308.332 261.89 308.547 261.89C308.825 261.89 309.04 261.998 309.191 262.213L310.139 263.444ZM328.963 266.438C327.447 266.438 326.279 266.015 325.458 265.169C324.649 264.322 324.245 263.103 324.245 261.511V249.762H321.933C321.731 249.762 321.56 249.705 321.421 249.592C321.282 249.465 321.213 249.276 321.213 249.023V247.678L324.358 247.28L325.135 241.348C325.173 241.159 325.255 241.007 325.382 240.893C325.521 240.767 325.698 240.704 325.912 240.704H327.618V247.318H333.17V249.762H327.618V261.284C327.618 262.093 327.814 262.693 328.205 263.084C328.597 263.476 329.102 263.672 329.721 263.672C330.075 263.672 330.378 263.627 330.631 263.539C330.896 263.438 331.124 263.331 331.313 263.217C331.503 263.103 331.661 263.002 331.787 262.914C331.926 262.813 332.046 262.762 332.147 262.762C332.324 262.762 332.482 262.869 332.621 263.084L333.606 264.695C333.025 265.238 332.324 265.668 331.503 265.984C330.682 266.287 329.835 266.438 328.963 266.438ZM348.784 254.443C348.784 253.66 348.671 252.946 348.443 252.301C348.228 251.645 347.906 251.082 347.477 250.615C347.06 250.135 346.548 249.768 345.942 249.516C345.335 249.25 344.647 249.118 343.876 249.118C342.259 249.118 340.977 249.592 340.029 250.539C339.094 251.474 338.513 252.775 338.286 254.443H348.784ZM351.513 263.444C351.096 263.95 350.597 264.392 350.016 264.771C349.435 265.137 348.81 265.44 348.14 265.68C347.483 265.92 346.801 266.097 346.093 266.211C345.386 266.337 344.685 266.401 343.99 266.401C342.663 266.401 341.438 266.179 340.313 265.737C339.202 265.282 338.235 264.626 337.414 263.766C336.605 262.895 335.974 261.821 335.519 260.545C335.064 259.269 334.837 257.803 334.837 256.148C334.837 254.809 335.039 253.559 335.443 252.396C335.86 251.234 336.454 250.23 337.225 249.383C337.995 248.524 338.936 247.854 340.048 247.374C341.16 246.882 342.411 246.635 343.8 246.635C344.95 246.635 346.011 246.831 346.984 247.223C347.969 247.602 348.816 248.158 349.523 248.89C350.243 249.611 350.806 250.508 351.21 251.581C351.614 252.643 351.816 253.855 351.816 255.22C351.816 255.75 351.759 256.104 351.646 256.281C351.532 256.458 351.317 256.546 351.001 256.546H338.172C338.21 257.759 338.374 258.814 338.665 259.711C338.968 260.608 339.385 261.36 339.915 261.966C340.446 262.56 341.078 263.008 341.811 263.312C342.543 263.602 343.364 263.748 344.274 263.748C345.121 263.748 345.847 263.653 346.453 263.463C347.072 263.261 347.603 263.046 348.045 262.819C348.487 262.592 348.854 262.383 349.144 262.194C349.448 261.991 349.707 261.89 349.921 261.89C350.199 261.89 350.414 261.998 350.566 262.213L351.513 263.444ZM366.534 250.103C366.382 250.381 366.149 250.52 365.833 250.52C365.643 250.52 365.429 250.451 365.188 250.312C364.948 250.173 364.652 250.021 364.298 249.857C363.957 249.68 363.546 249.522 363.066 249.383C362.586 249.232 362.017 249.156 361.36 249.156C360.792 249.156 360.28 249.232 359.826 249.383C359.371 249.522 358.979 249.718 358.651 249.971C358.335 250.223 358.088 250.52 357.912 250.861C357.747 251.19 357.665 251.55 357.665 251.941C357.665 252.434 357.804 252.845 358.082 253.173C358.373 253.502 358.752 253.786 359.219 254.026C359.687 254.266 360.217 254.481 360.811 254.67C361.405 254.847 362.011 255.043 362.63 255.258C363.262 255.46 363.875 255.687 364.468 255.94C365.062 256.193 365.593 256.508 366.06 256.887C366.528 257.266 366.9 257.734 367.178 258.29C367.469 258.833 367.614 259.49 367.614 260.261C367.614 261.145 367.456 261.966 367.14 262.724C366.825 263.47 366.357 264.12 365.738 264.676C365.119 265.219 364.361 265.649 363.464 265.965C362.567 266.281 361.531 266.438 360.356 266.438C359.017 266.438 357.804 266.224 356.718 265.794C355.631 265.352 354.709 264.79 353.951 264.108L354.747 262.819C354.848 262.655 354.968 262.528 355.107 262.44C355.246 262.351 355.423 262.307 355.637 262.307C355.865 262.307 356.105 262.396 356.358 262.573C356.61 262.749 356.913 262.945 357.267 263.16C357.634 263.375 358.076 263.571 358.594 263.748C359.112 263.924 359.756 264.013 360.527 264.013C361.184 264.013 361.758 263.931 362.251 263.766C362.744 263.59 363.154 263.356 363.483 263.065C363.811 262.775 364.051 262.44 364.203 262.061C364.367 261.682 364.449 261.278 364.449 260.848C364.449 260.317 364.304 259.882 364.014 259.541C363.736 259.187 363.363 258.89 362.895 258.65C362.428 258.397 361.891 258.182 361.285 258.006C360.691 257.816 360.078 257.62 359.447 257.418C358.827 257.216 358.215 256.989 357.608 256.736C357.015 256.471 356.484 256.142 356.016 255.75C355.549 255.359 355.17 254.879 354.879 254.31C354.602 253.729 354.463 253.028 354.463 252.207C354.463 251.474 354.614 250.773 354.917 250.103C355.221 249.421 355.663 248.827 356.244 248.322C356.825 247.804 357.539 247.393 358.385 247.09C359.232 246.787 360.198 246.635 361.285 246.635C362.548 246.635 363.679 246.837 364.677 247.242C365.687 247.633 366.559 248.177 367.292 248.871L366.534 250.103ZM377.037 266.438C375.521 266.438 374.352 266.015 373.531 265.169C372.723 264.322 372.318 263.103 372.318 261.511V249.762H370.006C369.804 249.762 369.634 249.705 369.495 249.592C369.356 249.465 369.286 249.276 369.286 249.023V247.678L372.432 247.28L373.209 241.348C373.247 241.159 373.329 241.007 373.455 240.893C373.594 240.767 373.771 240.704 373.986 240.704H375.691V247.318H381.244V249.762H375.691V261.284C375.691 262.093 375.887 262.693 376.279 263.084C376.671 263.476 377.176 263.672 377.795 263.672C378.149 263.672 378.452 263.627 378.705 263.539C378.97 263.438 379.197 263.331 379.387 263.217C379.576 263.103 379.734 263.002 379.86 262.914C379.999 262.813 380.119 262.762 380.221 262.762C380.397 262.762 380.555 262.869 380.694 263.084L381.68 264.695C381.099 265.238 380.397 265.668 379.576 265.984C378.755 266.287 377.909 266.438 377.037 266.438ZM403.615 257.494C402.061 257.544 400.735 257.671 399.635 257.873C398.549 258.062 397.658 258.315 396.963 258.631C396.281 258.947 395.782 259.319 395.466 259.749C395.163 260.179 395.012 260.659 395.012 261.189C395.012 261.695 395.094 262.13 395.258 262.497C395.422 262.863 395.643 263.166 395.921 263.406C396.212 263.634 396.547 263.804 396.926 263.918C397.317 264.019 397.734 264.07 398.176 264.07C398.77 264.07 399.313 264.013 399.806 263.899C400.299 263.773 400.76 263.596 401.189 263.369C401.632 263.141 402.048 262.869 402.44 262.554C402.844 262.238 403.236 261.878 403.615 261.473V257.494ZM392.719 249.648C393.78 248.625 394.923 247.861 396.149 247.355C397.374 246.85 398.732 246.597 400.223 246.597C401.297 246.597 402.251 246.774 403.084 247.128C403.918 247.482 404.619 247.974 405.188 248.606C405.756 249.238 406.186 250.002 406.477 250.899C406.767 251.796 406.912 252.782 406.912 253.855V266.135H405.415C405.087 266.135 404.834 266.085 404.657 265.984C404.48 265.87 404.341 265.655 404.24 265.339L403.861 263.52C403.356 263.988 402.863 264.404 402.383 264.771C401.903 265.125 401.398 265.428 400.867 265.68C400.337 265.92 399.768 266.104 399.162 266.23C398.568 266.369 397.905 266.438 397.172 266.438C396.427 266.438 395.725 266.337 395.068 266.135C394.411 265.92 393.837 265.605 393.344 265.188C392.864 264.771 392.479 264.247 392.188 263.615C391.91 262.971 391.771 262.213 391.771 261.341C391.771 260.583 391.98 259.856 392.396 259.162C392.813 258.454 393.489 257.829 394.424 257.285C395.359 256.742 396.578 256.3 398.082 255.959C399.585 255.605 401.429 255.403 403.615 255.352V253.855C403.615 252.365 403.293 251.24 402.649 250.482C402.004 249.712 401.063 249.326 399.825 249.326C398.991 249.326 398.29 249.434 397.721 249.648C397.166 249.851 396.679 250.084 396.262 250.35C395.858 250.602 395.504 250.836 395.201 251.051C394.911 251.253 394.62 251.354 394.329 251.354C394.102 251.354 393.906 251.297 393.742 251.183C393.578 251.057 393.439 250.905 393.325 250.729L392.719 249.648ZM418.134 256.755C418.816 256.755 419.416 256.66 419.934 256.471C420.452 256.281 420.888 256.016 421.242 255.675C421.595 255.334 421.861 254.929 422.037 254.462C422.214 253.982 422.303 253.457 422.303 252.889C422.303 251.714 421.943 250.779 421.223 250.084C420.515 249.389 419.485 249.042 418.134 249.042C416.769 249.042 415.727 249.389 415.007 250.084C414.299 250.779 413.946 251.714 413.946 252.889C413.946 253.457 414.034 253.982 414.211 254.462C414.4 254.929 414.672 255.334 415.026 255.675C415.38 256.016 415.815 256.281 416.333 256.471C416.851 256.66 417.451 256.755 418.134 256.755ZM424.217 267.178C424.217 266.71 424.084 266.331 423.819 266.041C423.554 265.75 423.193 265.523 422.739 265.358C422.296 265.194 421.778 265.08 421.185 265.017C420.591 264.941 419.959 264.885 419.29 264.847C418.633 264.809 417.963 264.771 417.281 264.733C416.599 264.695 415.942 264.632 415.31 264.543C414.603 264.872 414.021 265.289 413.567 265.794C413.124 266.287 412.903 266.868 412.903 267.538C412.903 267.967 413.011 268.365 413.226 268.731C413.453 269.11 413.794 269.433 414.249 269.698C414.704 269.976 415.272 270.191 415.954 270.342C416.649 270.506 417.464 270.589 418.399 270.589C419.309 270.589 420.123 270.506 420.844 270.342C421.564 270.178 422.17 269.944 422.663 269.641C423.168 269.338 423.554 268.978 423.819 268.561C424.084 268.144 424.217 267.683 424.217 267.178ZM427.647 247.697V248.947C427.647 249.364 427.381 249.629 426.851 249.743L424.672 250.027C425.101 250.861 425.316 251.784 425.316 252.794C425.316 253.729 425.133 254.582 424.766 255.352C424.413 256.111 423.92 256.761 423.288 257.304C422.657 257.848 421.899 258.265 421.014 258.555C420.13 258.846 419.17 258.991 418.134 258.991C417.237 258.991 416.39 258.884 415.594 258.669C415.19 258.921 414.881 259.193 414.666 259.484C414.451 259.762 414.344 260.046 414.344 260.336C414.344 260.791 414.527 261.139 414.893 261.379C415.272 261.606 415.765 261.77 416.371 261.871C416.978 261.972 417.666 262.036 418.437 262.061C419.22 262.086 420.016 262.13 420.825 262.194C421.646 262.244 422.442 262.339 423.212 262.478C423.996 262.617 424.691 262.844 425.297 263.16C425.903 263.476 426.39 263.912 426.756 264.468C427.135 265.023 427.325 265.744 427.325 266.628C427.325 267.449 427.116 268.245 426.699 269.016C426.295 269.786 425.708 270.469 424.937 271.062C424.166 271.669 423.219 272.149 422.094 272.503C420.983 272.869 419.726 273.052 418.323 273.052C416.921 273.052 415.695 272.913 414.647 272.635C413.598 272.357 412.727 271.985 412.032 271.517C411.337 271.05 410.813 270.506 410.459 269.887C410.118 269.281 409.947 268.643 409.947 267.973C409.947 267.026 410.244 266.224 410.838 265.567C411.432 264.91 412.246 264.386 413.282 263.994C412.714 263.741 412.259 263.406 411.918 262.989C411.59 262.56 411.425 261.985 411.425 261.265C411.425 260.987 411.476 260.703 411.577 260.412C411.678 260.109 411.83 259.812 412.032 259.522C412.246 259.218 412.505 258.934 412.809 258.669C413.112 258.404 413.466 258.17 413.87 257.968C412.922 257.437 412.183 256.736 411.653 255.864C411.122 254.98 410.857 253.956 410.857 252.794C410.857 251.859 411.034 251.013 411.387 250.255C411.754 249.484 412.259 248.834 412.903 248.303C413.548 247.76 414.312 247.343 415.196 247.052C416.093 246.762 417.072 246.616 418.134 246.616C418.968 246.616 419.744 246.711 420.465 246.901C421.185 247.078 421.842 247.343 422.435 247.697H427.647ZM440.932 257.494C439.378 257.544 438.052 257.671 436.953 257.873C435.866 258.062 434.975 258.315 434.281 258.631C433.598 258.947 433.099 259.319 432.784 259.749C432.48 260.179 432.329 260.659 432.329 261.189C432.329 261.695 432.411 262.13 432.575 262.497C432.739 262.863 432.96 263.166 433.238 263.406C433.529 263.634 433.864 263.804 434.243 263.918C434.634 264.019 435.051 264.07 435.493 264.07C436.087 264.07 436.63 264.013 437.123 263.899C437.616 263.773 438.077 263.596 438.507 263.369C438.949 263.141 439.366 262.869 439.757 262.554C440.162 262.238 440.553 261.878 440.932 261.473V257.494ZM430.036 249.648C431.097 248.625 432.24 247.861 433.466 247.355C434.691 246.85 436.049 246.597 437.54 246.597C438.614 246.597 439.568 246.774 440.402 247.128C441.235 247.482 441.937 247.974 442.505 248.606C443.074 249.238 443.503 250.002 443.794 250.899C444.084 251.796 444.23 252.782 444.23 253.855V266.135H442.732C442.404 266.135 442.151 266.085 441.974 265.984C441.798 265.87 441.659 265.655 441.558 265.339L441.179 263.52C440.673 263.988 440.18 264.404 439.7 264.771C439.22 265.125 438.715 265.428 438.184 265.68C437.654 265.92 437.085 266.104 436.479 266.23C435.885 266.369 435.222 266.438 434.489 266.438C433.744 266.438 433.042 266.337 432.386 266.135C431.729 265.92 431.154 265.605 430.661 265.188C430.181 264.771 429.796 264.247 429.505 263.615C429.227 262.971 429.088 262.213 429.088 261.341C429.088 260.583 429.297 259.856 429.714 259.162C430.13 258.454 430.806 257.829 431.741 257.285C432.676 256.742 433.895 256.3 435.399 255.959C436.902 255.605 438.747 255.403 440.932 255.352V253.855C440.932 252.365 440.61 251.24 439.966 250.482C439.321 249.712 438.38 249.326 437.142 249.326C436.308 249.326 435.607 249.434 435.039 249.648C434.483 249.851 433.996 250.084 433.579 250.35C433.175 250.602 432.821 250.836 432.518 251.051C432.228 251.253 431.937 251.354 431.646 251.354C431.419 251.354 431.223 251.297 431.059 251.183C430.895 251.057 430.756 250.905 430.642 250.729L430.036 249.648ZM452.324 246.939V266.135H448.951V246.939H452.324ZM453.044 240.912C453.044 241.241 452.975 241.55 452.836 241.841C452.709 242.119 452.532 242.371 452.305 242.599C452.09 242.814 451.831 242.984 451.528 243.111C451.238 243.237 450.928 243.3 450.6 243.3C450.271 243.3 449.962 243.237 449.671 243.111C449.393 242.984 449.147 242.814 448.932 242.599C448.717 242.371 448.547 242.119 448.42 241.841C448.294 241.55 448.231 241.241 448.231 240.912C448.231 240.584 448.294 240.274 448.42 239.984C448.547 239.681 448.717 239.422 448.932 239.207C449.147 238.979 449.393 238.803 449.671 238.676C449.962 238.55 450.271 238.487 450.6 238.487C450.928 238.487 451.238 238.55 451.528 238.676C451.831 238.803 452.09 238.979 452.305 239.207C452.532 239.422 452.709 239.681 452.836 239.984C452.975 240.274 453.044 240.584 453.044 240.912ZM460.444 249.724C460.861 249.257 461.303 248.834 461.77 248.455C462.238 248.076 462.73 247.753 463.248 247.488C463.779 247.21 464.335 247.002 464.916 246.863C465.51 246.711 466.148 246.635 466.83 246.635C467.879 246.635 468.801 246.812 469.597 247.166C470.405 247.507 471.075 248 471.605 248.644C472.149 249.276 472.559 250.04 472.837 250.937C473.115 251.834 473.254 252.826 473.254 253.912V266.135H469.862V253.912C469.862 252.459 469.527 251.335 468.858 250.539C468.201 249.731 467.196 249.326 465.844 249.326C464.846 249.326 463.912 249.566 463.04 250.046C462.181 250.526 461.385 251.177 460.652 251.998V266.135H457.26V246.939H459.288C459.768 246.939 460.065 247.172 460.178 247.64L460.444 249.724ZM475.762 241.405C476.154 241.039 476.584 240.691 477.051 240.363C477.531 240.034 478.049 239.744 478.605 239.491C479.173 239.238 479.78 239.043 480.424 238.904C481.081 238.752 481.789 238.676 482.547 238.676C483.545 238.676 484.467 238.821 485.313 239.112C486.172 239.403 486.911 239.813 487.531 240.344C488.15 240.874 488.636 241.519 488.99 242.277C489.343 243.035 489.52 243.888 489.52 244.835C489.52 245.795 489.375 246.623 489.084 247.318C488.807 248.012 488.446 248.625 488.004 249.156C487.575 249.674 487.101 250.129 486.583 250.52C486.078 250.899 485.598 251.259 485.143 251.6C484.688 251.941 484.296 252.283 483.968 252.624C483.652 252.965 483.469 253.344 483.418 253.761L483.077 256.66H480.765L480.538 253.514C480.487 252.946 480.595 252.453 480.86 252.036C481.125 251.607 481.473 251.209 481.902 250.842C482.332 250.463 482.806 250.097 483.324 249.743C483.842 249.377 484.322 248.973 484.764 248.53C485.219 248.088 485.598 247.589 485.901 247.033C486.204 246.465 486.356 245.789 486.356 245.006C486.356 244.462 486.248 243.97 486.033 243.527C485.819 243.085 485.528 242.713 485.162 242.409C484.795 242.094 484.359 241.854 483.854 241.689C483.361 241.525 482.831 241.443 482.262 241.443C481.492 241.443 480.828 241.538 480.273 241.727C479.729 241.917 479.268 242.125 478.889 242.353C478.51 242.58 478.201 242.788 477.961 242.978C477.733 243.167 477.544 243.262 477.392 243.262C477.076 243.262 476.83 243.117 476.653 242.826L475.762 241.405ZM479.458 264.051C479.458 263.722 479.515 263.413 479.628 263.122C479.755 262.832 479.919 262.579 480.121 262.364C480.336 262.149 480.588 261.979 480.879 261.852C481.17 261.726 481.479 261.663 481.808 261.663C482.136 261.663 482.445 261.726 482.736 261.852C483.027 261.979 483.279 262.149 483.494 262.364C483.709 262.579 483.879 262.832 484.006 263.122C484.132 263.413 484.195 263.722 484.195 264.051C484.195 264.392 484.132 264.708 484.006 264.998C483.879 265.276 483.709 265.523 483.494 265.737C483.279 265.952 483.027 266.116 482.736 266.23C482.445 266.356 482.136 266.42 481.808 266.42C481.479 266.42 481.17 266.356 480.879 266.23C480.588 266.116 480.336 265.952 480.121 265.737C479.919 265.523 479.755 265.276 479.628 264.998C479.515 264.708 479.458 264.392 479.458 264.051Z" fill="white"/>
</svg>
