<svg width="361" height="370" viewBox="0 0 361 370" fill="none" xmlns="http://www.w3.org/2000/svg">
<circle cx="180.5" cy="189.5" r="177.5" stroke="url(#paint0_linear_4_16)" stroke-width="6"/>
<circle cx="59.5" cy="53.5" r="51" fill="url(#paint1_linear_4_16)" stroke="white" stroke-width="5"/>
<path d="M18.0766 60V47.6125H26.4237V49.7719H20.6957V52.7236H25.9942V54.8829H20.6957V57.8407H26.4479V60H18.0766ZM31.881 60.1512C31.1753 60.1512 30.5362 59.9698 29.9636 59.6068C29.395 59.2399 28.9434 58.7016 28.6087 57.9919C28.2781 57.2781 28.1127 56.4031 28.1127 55.3668C28.1127 54.3022 28.2841 53.4171 28.6269 52.7115C28.9696 52.0018 29.4253 51.4715 29.9938 51.1207C30.5664 50.7658 31.1935 50.5884 31.8749 50.5884C32.3951 50.5884 32.8286 50.6771 33.1754 50.8546C33.5262 51.028 33.8085 51.2457 34.0222 51.5078C34.2399 51.7659 34.4053 52.0199 34.5182 52.2699H34.5968V47.6125H37.1674V60H34.627V58.5121H34.5182C34.3972 58.7701 34.2258 59.0262 34.004 59.2802C33.7863 59.5302 33.502 59.7379 33.1512 59.9032C32.8044 60.0686 32.381 60.1512 31.881 60.1512ZM32.6976 58.1007C33.1129 58.1007 33.4637 57.9878 33.75 57.762C34.0403 57.5322 34.2621 57.2116 34.4153 56.8003C34.5726 56.389 34.6512 55.9071 34.6512 55.3547C34.6512 54.8023 34.5746 54.3224 34.4214 53.9151C34.2682 53.5079 34.0464 53.1933 33.7561 52.9716C33.4657 52.7498 33.1129 52.6389 32.6976 52.6389C32.2742 52.6389 31.9173 52.7538 31.627 52.9837C31.3366 53.2135 31.1169 53.5321 30.9677 53.9393C30.8185 54.3466 30.7439 54.8184 30.7439 55.3547C30.7439 55.895 30.8185 56.3729 30.9677 56.7882C31.1209 57.1995 31.3407 57.5221 31.627 57.756C31.9173 57.9858 32.2742 58.1007 32.6976 58.1007ZM45.2438 56.0442V50.7094H47.8205V60H45.3466V58.3124H45.2499C45.0402 58.8568 44.6914 59.2943 44.2034 59.625C43.7196 59.9556 43.1288 60.121 42.4312 60.121C41.8102 60.121 41.2638 59.9798 40.7921 59.6976C40.3203 59.4153 39.9513 59.0141 39.6852 58.4939C39.4231 57.9737 39.29 57.3507 39.286 56.6249V50.7094H41.8627V56.1652C41.8667 56.7136 42.0139 57.1471 42.3042 57.4656C42.5945 57.7842 42.9837 57.9435 43.4716 57.9435C43.7821 57.9435 44.0724 57.8729 44.3426 57.7318C44.6127 57.5866 44.8305 57.3729 44.9958 57.0906C45.1652 56.8084 45.2478 56.4596 45.2438 56.0442ZM54.0793 60.1815C53.1276 60.1815 52.309 59.9798 51.6235 59.5766C50.9421 59.1693 50.4179 58.6048 50.0509 57.883C49.688 57.1612 49.5065 56.3305 49.5065 55.391C49.5065 54.4393 49.69 53.6046 50.057 52.8869C50.4279 52.1651 50.9542 51.6026 51.6356 51.1993C52.3171 50.7921 53.1276 50.5884 54.0672 50.5884C54.8777 50.5884 55.5874 50.7356 56.1963 51.03C56.8051 51.3243 57.287 51.7377 57.6419 52.2699C57.9967 52.8022 58.1923 53.4272 58.2286 54.145H55.797C55.7285 53.6813 55.547 53.3083 55.2527 53.026C54.9623 52.7397 54.5813 52.5965 54.1095 52.5965C53.7103 52.5965 53.3615 52.7054 53.0631 52.9232C52.7687 53.1369 52.5389 53.4494 52.3736 53.8607C52.2082 54.272 52.1256 54.77 52.1256 55.3547C52.1256 55.9475 52.2062 56.4515 52.3675 56.8668C52.5328 57.2822 52.7647 57.5987 53.0631 57.8165C53.3615 58.0342 53.7103 58.1431 54.1095 58.1431C54.4039 58.1431 54.668 58.0826 54.9019 57.9616C55.1398 57.8407 55.3353 57.6653 55.4886 57.4354C55.6458 57.2015 55.7487 56.9213 55.797 56.5947H58.2286C58.1882 57.3044 57.9947 57.9294 57.6479 58.4697C57.3052 59.006 56.8314 59.4254 56.2265 59.7278C55.6216 60.0302 54.9059 60.1815 54.0793 60.1815ZM62.5276 60.1754C61.9348 60.1754 61.4066 60.0726 60.9429 59.8669C60.4791 59.6572 60.1122 59.3488 59.842 58.9415C59.5759 58.5302 59.4428 58.0181 59.4428 57.4052C59.4428 56.889 59.5376 56.4555 59.7271 56.1047C59.9166 55.7539 60.1747 55.4716 60.5013 55.2579C60.8279 55.0442 61.1989 54.8829 61.6143 54.774C62.0336 54.6652 62.4732 54.5885 62.9328 54.5442C63.4732 54.4877 63.9087 54.4353 64.2393 54.3869C64.57 54.3345 64.8099 54.2579 64.9591 54.1571C65.1083 54.0563 65.1829 53.9071 65.1829 53.7095V53.6732C65.1829 53.2901 65.0619 52.9937 64.82 52.7841C64.5821 52.5744 64.2434 52.4695 63.8038 52.4695C63.3401 52.4695 62.9712 52.5724 62.697 52.778C62.4228 52.9796 62.2413 53.2337 62.1526 53.5401L59.7694 53.3466C59.8904 52.782 60.1283 52.2941 60.4832 51.8828C60.838 51.4675 61.2957 51.1489 61.8562 50.9271C62.4207 50.7013 63.074 50.5884 63.8159 50.5884C64.3321 50.5884 64.8261 50.6489 65.2978 50.7699C65.7737 50.8909 66.195 51.0784 66.562 51.3324C66.933 51.5864 67.2253 51.9131 67.439 52.3123C67.6528 52.7074 67.7596 53.1812 67.7596 53.7337V60H65.316V58.7117H65.2434C65.0942 59.002 64.8946 59.258 64.6446 59.4798C64.3946 59.6976 64.0942 59.8689 63.7434 59.994C63.3925 60.1149 62.9873 60.1754 62.5276 60.1754ZM63.2655 58.3971C63.6446 58.3971 63.9793 58.3225 64.2696 58.1733C64.5599 58.0201 64.7877 57.8144 64.9531 57.5564C65.1184 57.2983 65.2011 57.006 65.2011 56.6793V55.6934C65.1204 55.7458 65.0095 55.7942 64.8684 55.8386C64.7313 55.8789 64.576 55.9172 64.4027 55.9535C64.2293 55.9858 64.0559 56.016 63.8825 56.0442C63.7091 56.0684 63.5518 56.0906 63.4107 56.1108C63.1083 56.1551 62.8441 56.2257 62.6183 56.3225C62.3925 56.4192 62.2171 56.5503 62.0921 56.7156C61.9671 56.8769 61.9046 57.0785 61.9046 57.3205C61.9046 57.6713 62.0316 57.9395 62.2857 58.1249C62.5437 58.3064 62.8703 58.3971 63.2655 58.3971ZM74.7003 50.7094V52.6449H69.1054V50.7094H74.7003ZM70.3756 48.4835H72.9523V57.1451C72.9523 57.383 72.9886 57.5685 73.0612 57.7015C73.1338 57.8306 73.2346 57.9213 73.3636 57.9737C73.4967 58.0261 73.6499 58.0524 73.8233 58.0524C73.9443 58.0524 74.0652 58.0423 74.1862 58.0221C74.3072 57.9979 74.3999 57.9798 74.4644 57.9677L74.8697 59.8851C74.7407 59.9254 74.5592 59.9718 74.3253 60.0242C74.0915 60.0806 73.8072 60.1149 73.4725 60.127C72.8515 60.1512 72.3071 60.0686 71.8394 59.879C71.3756 59.6895 71.0147 59.3951 70.7567 58.9959C70.4986 58.5967 70.3716 58.0927 70.3756 57.4838V48.4835ZM80.4767 60.1815C79.5372 60.1815 78.7247 59.9819 78.0392 59.5826C77.3577 59.1794 76.8315 58.6189 76.4605 57.9011C76.0895 57.1793 75.904 56.3426 75.904 55.391C75.904 54.4313 76.0895 53.5925 76.4605 52.8748C76.8315 52.153 77.3577 51.5925 78.0392 51.1933C78.7247 50.79 79.5372 50.5884 80.4767 50.5884C81.4163 50.5884 82.2268 50.79 82.9083 51.1933C83.5938 51.5925 84.122 52.153 84.493 52.8748C84.864 53.5925 85.0494 54.4313 85.0494 55.391C85.0494 56.3426 84.864 57.1793 84.493 57.9011C84.122 58.6189 83.5938 59.1794 82.9083 59.5826C82.2268 59.9819 81.4163 60.1815 80.4767 60.1815ZM80.4888 58.1854C80.9163 58.1854 81.2731 58.0645 81.5594 57.8225C81.8457 57.5765 82.0615 57.2419 82.2066 56.8185C82.3558 56.3951 82.4304 55.9132 82.4304 55.3728C82.4304 54.8325 82.3558 54.3506 82.2066 53.9272C82.0615 53.5038 81.8457 53.1691 81.5594 52.9232C81.2731 52.6772 80.9163 52.5542 80.4888 52.5542C80.0574 52.5542 79.6944 52.6772 79.4001 52.9232C79.1098 53.1691 78.89 53.5038 78.7408 53.9272C78.5956 54.3506 78.523 54.8325 78.523 55.3728C78.523 55.9132 78.5956 56.3951 78.7408 56.8185C78.89 57.2419 79.1098 57.5765 79.4001 57.8225C79.6944 58.0645 80.0574 58.1854 80.4888 58.1854ZM86.7249 60V50.7094H89.223V52.3304H89.3197C89.4891 51.7538 89.7734 51.3183 90.1726 51.0239C90.5718 50.7255 91.0315 50.5763 91.5517 50.5763C91.6807 50.5763 91.8198 50.5844 91.969 50.6005C92.1182 50.6167 92.2493 50.6388 92.3622 50.6671V52.9534C92.2412 52.9171 92.0739 52.8849 91.8601 52.8566C91.6464 52.8284 91.4509 52.8143 91.2734 52.8143C90.8944 52.8143 90.5557 52.897 90.2573 53.0623C89.9629 53.2236 89.729 53.4494 89.5556 53.7397C89.3863 54.0301 89.3016 54.3647 89.3016 54.7438V60H86.7249ZM101.424 53.3587L99.0655 53.5038C99.0252 53.3022 98.9385 53.1208 98.8054 52.9595C98.6723 52.7941 98.4969 52.6631 98.2792 52.5663C98.0655 52.4655 97.8094 52.4151 97.511 52.4151C97.1118 52.4151 96.7751 52.4998 96.5009 52.6691C96.2267 52.8345 96.0896 53.0562 96.0896 53.3345C96.0896 53.5563 96.1783 53.7438 96.3557 53.897C96.5332 54.0502 96.8376 54.1732 97.2691 54.266L98.9506 54.6047C99.8538 54.7902 100.527 55.0886 100.971 55.4999C101.414 55.9112 101.636 56.4515 101.636 57.1209C101.636 57.7298 101.457 58.2641 101.098 58.7238C100.743 59.1834 100.255 59.5423 99.6341 59.8004C99.0171 60.0544 98.3054 60.1815 97.4989 60.1815C96.269 60.1815 95.2892 59.9254 94.5593 59.4133C93.8335 58.8971 93.4081 58.1955 93.2831 57.3084L95.8174 57.1753C95.894 57.5503 96.0795 57.8366 96.3739 58.0342C96.6682 58.2278 97.0453 58.3245 97.505 58.3245C97.9566 58.3245 98.3195 58.2378 98.5937 58.0645C98.8719 57.887 99.0131 57.6592 99.0171 57.381C99.0131 57.1471 98.9143 56.9556 98.7207 56.8064C98.5272 56.6531 98.2288 56.5362 97.8255 56.4555L96.2166 56.135C95.3093 55.9535 94.6339 55.639 94.1903 55.1914C93.7508 54.7438 93.5311 54.1732 93.5311 53.4796C93.5311 52.8828 93.6923 52.3687 94.0149 51.9373C94.3416 51.5058 94.7992 51.1731 95.388 50.9392C95.9807 50.7054 96.6743 50.5884 97.4687 50.5884C98.6421 50.5884 99.5655 50.8364 100.239 51.3324C100.916 51.8284 101.312 52.5038 101.424 53.3587Z" fill="white"/>
<circle cx="299.5" cy="316.5" r="51" fill="url(#paint2_linear_4_16)" stroke="white" stroke-width="5"/>
<path d="M268.797 314.175C268.748 313.687 268.541 313.308 268.174 313.038C267.807 312.768 267.309 312.633 266.68 312.633C266.252 312.633 265.891 312.693 265.597 312.814C265.303 312.931 265.077 313.094 264.919 313.304C264.766 313.514 264.69 313.752 264.69 314.018C264.682 314.24 264.728 314.433 264.829 314.599C264.934 314.764 265.077 314.907 265.258 315.028C265.44 315.145 265.649 315.248 265.887 315.336C266.125 315.421 266.379 315.494 266.649 315.554L267.762 315.82C268.303 315.941 268.799 316.103 269.25 316.304C269.702 316.506 270.093 316.754 270.424 317.048C270.754 317.343 271.01 317.689 271.192 318.089C271.377 318.488 271.472 318.945 271.476 319.462C271.472 320.22 271.279 320.877 270.895 321.433C270.516 321.986 269.968 322.415 269.25 322.722C268.537 323.024 267.676 323.175 266.668 323.175C265.667 323.175 264.796 323.022 264.055 322.716C263.317 322.409 262.74 321.956 262.325 321.355C261.913 320.75 261.698 320.002 261.677 319.111H264.212C264.24 319.526 264.359 319.873 264.569 320.151C264.782 320.425 265.067 320.633 265.422 320.774C265.78 320.911 266.186 320.98 266.637 320.98C267.081 320.98 267.466 320.915 267.793 320.786C268.123 320.657 268.379 320.478 268.561 320.248C268.742 320.018 268.833 319.754 268.833 319.456C268.833 319.177 268.75 318.943 268.585 318.754C268.424 318.564 268.186 318.403 267.871 318.27C267.561 318.137 267.18 318.016 266.728 317.907L265.379 317.568C264.335 317.314 263.51 316.917 262.905 316.377C262.3 315.836 262 315.109 262.004 314.193C262 313.443 262.2 312.788 262.603 312.227C263.01 311.667 263.569 311.229 264.278 310.915C264.988 310.6 265.795 310.443 266.698 310.443C267.617 310.443 268.42 310.6 269.105 310.915C269.795 311.229 270.331 311.667 270.714 312.227C271.097 312.788 271.295 313.437 271.307 314.175H268.797ZM278.131 313.709V315.645H272.536V313.709H278.131ZM273.806 311.484H276.383V320.145C276.383 320.383 276.419 320.568 276.492 320.702C276.564 320.831 276.665 320.921 276.794 320.974C276.927 321.026 277.081 321.052 277.254 321.052C277.375 321.052 277.496 321.042 277.617 321.022C277.738 320.998 277.831 320.98 277.895 320.968L278.3 322.885C278.171 322.925 277.99 322.972 277.756 323.024C277.522 323.081 277.238 323.115 276.903 323.127C276.282 323.151 275.738 323.069 275.27 322.879C274.806 322.69 274.445 322.395 274.187 321.996C273.929 321.597 273.802 321.093 273.806 320.484V311.484ZM285.767 319.044V313.709H288.344V323H285.87V321.312H285.773C285.564 321.857 285.215 322.294 284.727 322.625C284.243 322.956 283.652 323.121 282.955 323.121C282.334 323.121 281.787 322.98 281.316 322.698C280.844 322.415 280.475 322.014 280.209 321.494C279.947 320.974 279.814 320.351 279.81 319.625V313.709H282.386V319.165C282.39 319.714 282.537 320.147 282.828 320.466C283.118 320.784 283.507 320.943 283.995 320.943C284.306 320.943 284.596 320.873 284.866 320.732C285.136 320.587 285.354 320.373 285.519 320.091C285.689 319.808 285.771 319.46 285.767 319.044ZM293.829 323.151C293.123 323.151 292.484 322.97 291.911 322.607C291.343 322.24 290.891 321.702 290.556 320.992C290.226 320.278 290.06 319.403 290.06 318.367C290.06 317.302 290.232 316.417 290.574 315.711C290.917 315.002 291.373 314.472 291.941 314.121C292.514 313.766 293.141 313.588 293.823 313.588C294.343 313.588 294.776 313.677 295.123 313.855C295.474 314.028 295.756 314.246 295.97 314.508C296.188 314.766 296.353 315.02 296.466 315.27H296.544V310.613H299.115V323H296.575V321.512H296.466C296.345 321.77 296.173 322.026 295.952 322.28C295.734 322.53 295.45 322.738 295.099 322.903C294.752 323.069 294.329 323.151 293.829 323.151ZM294.645 321.101C295.061 321.101 295.411 320.988 295.698 320.762C295.988 320.532 296.21 320.212 296.363 319.8C296.52 319.389 296.599 318.907 296.599 318.355C296.599 317.802 296.522 317.322 296.369 316.915C296.216 316.508 295.994 316.193 295.704 315.972C295.413 315.75 295.061 315.639 294.645 315.639C294.222 315.639 293.865 315.754 293.575 315.984C293.284 316.214 293.064 316.532 292.915 316.939C292.766 317.347 292.691 317.818 292.691 318.355C292.691 318.895 292.766 319.373 292.915 319.788C293.069 320.2 293.288 320.522 293.575 320.756C293.865 320.986 294.222 321.101 294.645 321.101ZM305.468 323.181C304.512 323.181 303.689 322.988 303 322.601C302.314 322.21 301.786 321.657 301.415 320.943C301.044 320.226 300.859 319.377 300.859 318.397C300.859 317.441 301.044 316.603 301.415 315.881C301.786 315.159 302.308 314.597 302.982 314.193C303.659 313.79 304.453 313.588 305.365 313.588C305.978 313.588 306.548 313.687 307.076 313.885C307.609 314.078 308.072 314.371 308.468 314.762C308.867 315.153 309.177 315.645 309.399 316.238C309.621 316.826 309.732 317.516 309.732 318.306V319.014H301.887V317.417H307.306C307.306 317.046 307.226 316.718 307.064 316.431C306.903 316.145 306.679 315.921 306.393 315.76C306.111 315.595 305.782 315.512 305.407 315.512C305.016 315.512 304.669 315.603 304.367 315.784C304.068 315.961 303.834 316.201 303.665 316.504C303.496 316.802 303.409 317.135 303.405 317.502V319.02C303.405 319.48 303.49 319.877 303.659 320.212C303.832 320.546 304.076 320.804 304.391 320.986C304.705 321.167 305.078 321.258 305.51 321.258C305.796 321.258 306.058 321.218 306.296 321.137C306.534 321.056 306.738 320.935 306.907 320.774C307.076 320.613 307.206 320.415 307.294 320.181L309.677 320.339C309.556 320.911 309.308 321.411 308.933 321.839C308.562 322.262 308.083 322.593 307.494 322.831C306.909 323.065 306.234 323.181 305.468 323.181ZM313.99 317.629V323H311.413V313.709H313.869V315.349H313.978C314.184 314.808 314.528 314.381 315.012 314.066C315.496 313.748 316.083 313.588 316.772 313.588C317.418 313.588 317.98 313.73 318.46 314.012C318.94 314.294 319.313 314.697 319.579 315.222C319.845 315.742 319.978 316.363 319.978 317.084V323H317.401V317.544C317.405 316.976 317.26 316.532 316.966 316.214C316.672 315.891 316.266 315.73 315.75 315.73C315.403 315.73 315.097 315.804 314.831 315.953C314.569 316.103 314.363 316.32 314.214 316.607C314.069 316.889 313.994 317.23 313.99 317.629ZM326.951 313.709V315.645H321.356V313.709H326.951ZM322.626 311.484H325.203V320.145C325.203 320.383 325.239 320.568 325.311 320.702C325.384 320.831 325.485 320.921 325.614 320.974C325.747 321.026 325.9 321.052 326.074 321.052C326.195 321.052 326.315 321.042 326.436 321.022C326.557 320.998 326.65 320.98 326.715 320.968L327.12 322.885C326.991 322.925 326.809 322.972 326.576 323.024C326.342 323.081 326.057 323.115 325.723 323.127C325.102 323.151 324.557 323.069 324.09 322.879C323.626 322.69 323.265 322.395 323.007 321.996C322.749 321.597 322.622 321.093 322.626 320.484V311.484ZM336.243 316.359L333.884 316.504C333.843 316.302 333.757 316.121 333.624 315.959C333.491 315.794 333.315 315.663 333.097 315.566C332.884 315.465 332.628 315.415 332.329 315.415C331.93 315.415 331.593 315.5 331.319 315.669C331.045 315.834 330.908 316.056 330.908 316.334C330.908 316.556 330.997 316.744 331.174 316.897C331.351 317.05 331.656 317.173 332.087 317.266L333.769 317.605C334.672 317.79 335.346 318.089 335.789 318.5C336.233 318.911 336.454 319.452 336.454 320.121C336.454 320.73 336.275 321.264 335.916 321.724C335.561 322.183 335.073 322.542 334.452 322.8C333.835 323.054 333.124 323.181 332.317 323.181C331.087 323.181 330.107 322.925 329.378 322.413C328.652 321.897 328.226 321.196 328.101 320.308L330.636 320.175C330.712 320.55 330.898 320.837 331.192 321.034C331.487 321.228 331.864 321.325 332.323 321.325C332.775 321.325 333.138 321.238 333.412 321.064C333.69 320.887 333.831 320.659 333.835 320.381C333.831 320.147 333.733 319.956 333.539 319.806C333.345 319.653 333.047 319.536 332.644 319.456L331.035 319.135C330.128 318.954 329.452 318.639 329.009 318.191C328.569 317.744 328.349 317.173 328.349 316.48C328.349 315.883 328.511 315.369 328.833 314.937C329.16 314.506 329.618 314.173 330.206 313.939C330.799 313.705 331.493 313.588 332.287 313.588C333.46 313.588 334.384 313.836 335.057 314.332C335.735 314.828 336.13 315.504 336.243 316.359Z" fill="white"/>
<g clip-path="url(#clip0_4_16)">
<path d="M301.976 189.504C281.749 175.279 278.89 161.723 292.353 141.464C268.542 137.071 261.053 125.968 266.103 102.232C242.548 107.322 231.531 99.7727 227.172 75.7814C207.066 89.3445 193.617 86.4655 179.5 66.0854C165.383 86.4655 151.934 89.3516 131.828 75.7814C127.469 99.7727 116.452 107.322 92.8971 102.232C97.9466 125.968 90.4577 137.071 66.6467 141.464C80.1097 161.723 77.2507 175.279 57.0242 189.504C77.2507 203.728 80.1097 217.284 66.6467 237.543C90.4577 241.936 97.9466 253.04 92.8971 276.775C116.452 271.685 127.469 279.234 131.828 303.226C151.934 289.663 165.383 292.542 179.5 312.922C193.617 292.542 207.066 289.656 227.172 303.226C231.531 279.234 242.548 271.685 266.103 276.775C261.053 253.04 268.542 241.936 292.353 237.543C278.89 217.284 281.749 203.728 301.976 189.504Z" fill="url(#paint3_linear_4_16)"/>
<path d="M179.5 285.618C232.608 285.618 275.661 242.586 275.661 189.504C275.661 136.421 232.608 93.3892 179.5 93.3892C126.392 93.3892 83.3386 136.421 83.3386 189.504C83.3386 242.586 126.392 285.618 179.5 285.618Z" fill="white" stroke="url(#paint4_linear_4_16)" stroke-width="5" stroke-miterlimit="10"/>
<path d="M107.53 213V166.359H126.979C130.471 166.359 133.394 166.852 135.747 167.839C138.115 168.826 139.892 170.208 141.076 171.984C142.275 173.76 142.875 175.818 142.875 178.156C142.875 179.932 142.503 181.519 141.759 182.916C141.015 184.297 139.99 185.443 138.685 186.354C137.379 187.265 135.868 187.903 134.153 188.267V188.723C136.035 188.814 137.774 189.323 139.368 190.249C140.977 191.175 142.268 192.465 143.24 194.12C144.211 195.76 144.697 197.703 144.697 199.951C144.697 202.456 144.059 204.695 142.784 206.669C141.509 208.627 139.664 210.176 137.25 211.315C134.836 212.438 131.906 213 128.459 213H107.53ZM118.803 203.913H125.772C128.216 203.913 130.015 203.45 131.169 202.524C132.338 201.598 132.923 200.307 132.923 198.652C132.923 197.453 132.642 196.421 132.08 195.555C131.519 194.675 130.721 193.999 129.689 193.528C128.657 193.042 127.419 192.799 125.977 192.799H118.803V203.913ZM118.803 185.535H125.043C126.273 185.535 127.366 185.33 128.323 184.92C129.279 184.51 130.023 183.918 130.554 183.143C131.101 182.369 131.374 181.435 131.374 180.342C131.374 178.778 130.82 177.548 129.712 176.653C128.603 175.757 127.108 175.309 125.225 175.309H118.803V185.535ZM150.117 213V178.019H160.935V184.396H161.299C161.937 182.088 162.977 180.372 164.419 179.249C165.862 178.11 167.539 177.541 169.452 177.541C169.969 177.541 170.5 177.579 171.047 177.655C171.593 177.716 172.102 177.814 172.572 177.951V187.63C172.041 187.448 171.343 187.303 170.477 187.197C169.627 187.091 168.868 187.038 168.2 187.038C166.879 187.038 165.687 187.334 164.624 187.926C163.577 188.503 162.749 189.315 162.142 190.363C161.55 191.395 161.254 192.61 161.254 194.006V213H150.117ZM177.11 213V178.019H188.247V213H177.11ZM182.69 173.943C181.126 173.943 179.782 173.426 178.659 172.394C177.535 171.346 176.974 170.086 176.974 168.613C176.974 167.156 177.535 165.911 178.659 164.879C179.782 163.831 181.126 163.307 182.69 163.307C184.269 163.307 185.612 163.831 186.721 164.879C187.844 165.911 188.406 167.156 188.406 168.613C188.406 170.086 187.844 171.346 186.721 172.394C185.612 173.426 184.269 173.943 182.69 173.943ZM215.08 178.019V186.218H193.012V178.019H215.08ZM197.635 169.638H208.772V202C208.772 202.683 208.878 203.238 209.091 203.663C209.318 204.073 209.645 204.369 210.07 204.551C210.495 204.718 211.004 204.801 211.596 204.801C212.021 204.801 212.469 204.763 212.939 204.687C213.425 204.596 213.79 204.52 214.033 204.46L215.718 212.499C215.186 212.651 214.435 212.841 213.463 213.068C212.507 213.296 211.36 213.44 210.024 213.501C207.413 213.622 205.173 213.319 203.306 212.59C201.454 211.846 200.034 210.692 199.047 209.128C198.076 207.565 197.605 205.598 197.635 203.23V169.638ZM236.738 213.66C233.079 213.66 229.921 212.939 227.264 211.497C224.622 210.039 222.588 207.967 221.161 205.28C219.749 202.577 219.043 199.366 219.043 195.646C219.043 192.033 219.756 188.875 221.184 186.172C222.611 183.455 224.622 181.344 227.219 179.841C229.815 178.323 232.874 177.564 236.397 177.564C238.887 177.564 241.164 177.951 243.229 178.725C245.294 179.499 247.078 180.646 248.581 182.164C250.084 183.682 251.253 185.557 252.088 187.789C252.923 190.006 253.34 192.549 253.34 195.418V198.197H222.937V191.729H242.978C242.963 190.545 242.682 189.49 242.136 188.564C241.589 187.637 240.837 186.916 239.881 186.4C238.94 185.869 237.854 185.603 236.624 185.603C235.379 185.603 234.263 185.884 233.277 186.446C232.29 186.992 231.508 187.744 230.931 188.7C230.354 189.641 230.05 190.712 230.02 191.911V198.493C230.02 199.92 230.301 201.173 230.862 202.251C231.424 203.313 232.221 204.141 233.254 204.733C234.286 205.325 235.516 205.621 236.943 205.621C237.93 205.621 238.826 205.485 239.63 205.211C240.435 204.938 241.126 204.536 241.703 204.004C242.28 203.473 242.713 202.82 243.001 202.046L253.227 202.342C252.801 204.634 251.868 206.631 250.425 208.331C248.998 210.017 247.123 211.33 244.8 212.271C242.477 213.197 239.79 213.66 236.738 213.66Z" fill="#3FBEFF"/>
</g>
<defs>
<linearGradient id="paint0_linear_4_16" x1="10.5" y1="146" x2="345.5" y2="263" gradientUnits="userSpaceOnUse">
<stop stop-color="#3FDBFF"/>
<stop offset="1" stop-color="#3FB6FF"/>
</linearGradient>
<linearGradient id="paint1_linear_4_16" x1="96.1685" y1="24.6461" x2="25.8371" y2="107" gradientUnits="userSpaceOnUse">
<stop stop-color="#3FDBFF"/>
<stop offset="1" stop-color="#3FB6FF"/>
</linearGradient>
<linearGradient id="paint2_linear_4_16" x1="336.169" y1="287.646" x2="265.837" y2="370" gradientUnits="userSpaceOnUse">
<stop stop-color="#3FDBFF"/>
<stop offset="1" stop-color="#3FB6FF"/>
</linearGradient>
<linearGradient id="paint3_linear_4_16" x1="57.0242" y1="189.504" x2="301.976" y2="189.504" gradientUnits="userSpaceOnUse">
<stop stop-color="#3FB1FF"/>
<stop offset="1" stop-color="#3FF1FF"/>
</linearGradient>
<linearGradient id="paint4_linear_4_16" x1="81.5535" y1="189.504" x2="277.439" y2="189.504" gradientUnits="userSpaceOnUse">
<stop stop-color="#2AB4FF"/>
<stop offset="1" stop-color="#1593FF"/>
</linearGradient>
<clipPath id="clip0_4_16">
<rect width="245" height="247" fill="white" transform="translate(57 66)"/>
</clipPath>
</defs>
</svg>
